<?xml version="1.0" encoding="UTF-8" standalone="no"?>
<svg
   height="96"
   viewBox="0 0 96 96"
   width="96"
   version="1.1"
   id="svg4740"
   sodipodi:docname="people.svg"
   inkscape:version="1.2.2 (b0a8486541, 2022-12-01)"
   inkscape:export-filename="people.png"
   inkscape:export-xdpi="96"
   inkscape:export-ydpi="96"
   xmlns:inkscape="http://www.inkscape.org/namespaces/inkscape"
   xmlns:sodipodi="http://sodipodi.sourceforge.net/DTD/sodipodi-0.dtd"
   xmlns="http://www.w3.org/2000/svg"
   xmlns:svg="http://www.w3.org/2000/svg">
  <defs
     id="defs4744" />
  <sodipodi:namedview
     id="namedview4742"
     pagecolor="#ffffff"
     bordercolor="#000000"
     borderopacity="0.25"
     inkscape:showpageshadow="2"
     inkscape:pageopacity="0"
     inkscape:pagecheckerboard="0"
     inkscape:deskcolor="#d1d1d1"
     showgrid="false"
     inkscape:zoom="8.03125"
     inkscape:cx="59.642023"
     inkscape:cy="50.178988"
     inkscape:window-width="1920"
     inkscape:window-height="1002"
     inkscape:window-x="0"
     inkscape:window-y="0"
     inkscape:window-maximized="1"
     inkscape:current-layer="path4738" />
  <g
     id="path4738">
    <path
       id="path988"
       style="color:#000000;fill:#ffffff;stroke-width:0;fill-opacity:1;stroke-dasharray:none;stroke:none"
       d="M 29.644531 1 C 21.469414 1 14.822266 8.0716747 14.822266 16.769531 C 14.822266 25.492029 21.469414 32.539062 29.644531 32.539062 C 37.842805 32.539062 44.464844 25.492029 44.464844 16.769531 C 44.464844 8.0716747 37.842805 1 29.644531 1 z M 29.644531 6.8007812 C 34.519576 6.8007813 38.664062 11.113688 38.664062 16.769531 C 38.664062 22.44858 34.515284 26.738283 29.644531 26.738281 C 24.791424 26.738281 20.623047 22.449475 20.623047 16.769531 C 20.623047 11.112653 24.786853 6.8007812 29.644531 6.8007812 z M 65.216797 19.923828 C 57.041681 19.923828 50.394531 26.995503 50.394531 35.693359 C 50.394531 44.415857 57.041681 51.462891 65.216797 51.462891 C 73.415071 51.462891 80.037109 44.415857 80.037109 35.693359 C 80.037109 26.995503 73.415071 19.923828 65.216797 19.923828 z M 65.216797 25.724609 C 70.091839 25.724609 74.236328 30.037516 74.236328 35.693359 C 74.236328 41.372408 70.087547 45.662109 65.216797 45.662109 C 60.363687 45.662109 56.195313 41.373303 56.195312 35.693359 C 56.195313 30.036482 60.359118 25.724609 65.216797 25.724609 z M 17.787109 38.847656 C 7.9445485 38.847656 0 47.297608 0 57.769531 L 0 70.386719 C 0 73.885576 2.6411105 76.693359 5.9296875 76.693359 L 30.107422 76.693359 C 30.107422 63.806729 39.486076 53.138837 51.320312 52.054688 C 47.823307 48.679032 45.508385 44.120579 44.744141 39.167969 C 43.701989 38.97085 42.613584 38.847656 41.501953 38.847656 L 17.787109 38.847656 z M 17.787109 44.648438 L 40.15625 44.648438 L 40.699219 46.058594 C 40.780904 46.271293 40.889133 46.520476 41.011719 46.814453 L 41.773438 48.644531 L 40.035156 49.59375 C 32.75415 53.56969 27.38032 60.736998 25.316406 69.212891 L 24.908203 70.892578 L 5.8007812 70.892578 L 5.8007812 57.769531 C 5.8007813 50.310713 11.271301 44.648438 17.787109 44.648438 z M 53.359375 57.769531 C 43.516813 57.769531 35.572266 66.221436 35.572266 76.693359 L 35.572266 89.308594 C 35.572266 92.807451 38.213375 95.617188 41.501953 95.617188 L 88.931641 95.617188 C 92.220216 95.617188 94.859375 92.807451 94.859375 89.308594 L 94.859375 76.693359 C 94.859375 66.221436 86.939937 57.769531 77.074219 57.769531 L 53.359375 57.769531 z M 53.359375 63.570312 L 77.074219 63.570312 C 83.61319 63.570313 89.058594 69.232808 89.058594 76.693359 L 89.058594 89.816406 L 41.373047 89.816406 L 41.373047 76.693359 C 41.373047 69.234542 46.843019 63.570312 53.359375 63.570312 z " />
  </g>
</svg>
