<?xml version="1.0" encoding="UTF-8" standalone="no"?>
<!-- Created with Inkscape (http://www.inkscape.org/) -->

<svg
   width="96"
   height="96"
   viewBox="0 0 25.399999 25.4"
   version="1.1"
   id="svg5"
   inkscape:version="1.2.2 (b0a8486541, 2022-12-01)"
   sodipodi:docname="compile.svg"
   xmlns:inkscape="http://www.inkscape.org/namespaces/inkscape"
   xmlns:sodipodi="http://sodipodi.sourceforge.net/DTD/sodipodi-0.dtd"
   xmlns="http://www.w3.org/2000/svg"
   xmlns:svg="http://www.w3.org/2000/svg">
  <sodipodi:namedview
     id="namedview7"
     pagecolor="#ffffff"
     bordercolor="#000000"
     borderopacity="0.25"
     inkscape:showpageshadow="2"
     inkscape:pageopacity="0"
     inkscape:pagecheckerboard="0"
     inkscape:deskcolor="#d1d1d1"
     inkscape:document-units="px"
     showgrid="false"
     showguides="false"
     inkscape:zoom="8.1458333"
     inkscape:cx="46.649616"
     inkscape:cy="49.227621"
     inkscape:window-width="1920"
     inkscape:window-height="1002"
     inkscape:window-x="0"
     inkscape:window-y="0"
     inkscape:window-maximized="1"
     inkscape:current-layer="layer1" />
  <defs
     id="defs2" />
  <g
     inkscape:label="Layer 1"
     inkscape:groupmode="layer"
     id="layer1">
    <path
       id="path1083"
       style="color:#000000;fill:#ffffff;stroke-linecap:square;stroke-miterlimit:56.3;-inkscape-stroke:none;stroke:none;fill-opacity:1"
       d="m 8.0486042,1.4588257 c -2.1614396,0.039812 -2.3322435,0.033937 -4.4936397,0.07607 L 3.58442,3.1208454 C 5.3793387,3.0903618 5.1834953,3.0985996 6.9783853,3.0664794 L 9.1033201,8.4335936 13.431738,8.3478107 15.140678,10.468611 12.124841,9.2971068 8.2031167,9.2888385 6.1329589,6.6192341 C 4.620562,6.6199563 5.0964735,6.6032844 3.5840764,6.6032844 v 1.5875 c 1.2531536,1.148e-4 0.5179988,0.017121 1.7711522,0.016466 l 2.0686075,2.6675372 4.4023149,0.0098 1.799374,0.699182 c -3.9604398,0.06436 -6.3617171,0.08342 -10.3221124,0.1505 l 0.023254,1.58595 c 4.0945271,-0.0611 6.6296647,-0.09109 10.7241551,-0.154635 l -2.259811,0.867648 -4.2829423,0.04082 -2.113566,2.519743 c -1.2596992,-8.74e-4 -0.5586224,0.03841 -1.8183219,0.03841 v 1.588017 c 1.5063682,-5.1e-5 1.0519605,-0.03924 2.5583284,-0.03841 l 2.1192504,-2.525428 3.8400754,-0.03721 2.889746,-1.110009 -1.544092,1.756482 -4.3284174,0.08371 -2.3006347,5.359363 c -1.7466651,-0.01149 -1.532535,0.01444 -3.2792146,0.0053 l -0.011885,1.588017 c 2.0982492,0.0114 2.2356984,-0.01332 4.3339305,8.67e-4 l 2.3125207,-5.385201 4.003889,-0.0801 3.656108,-4.155302 v -2.412256 l -3.647839,-4.5242717 -4.00389,0.078548 z"
       sodipodi:nodetypes="ccccccccccccccccccccccccccccccccccccccccc" />
    <path
       style="color:#000000;fill:#ffffff;stroke-linecap:square;stroke-miterlimit:56.3;stroke:none;stroke-opacity:1;stroke-width:1.00012498;stroke-dasharray:none;fill-opacity:1"
       d="M 17.048828,6.8769531 V 7.6699219 17.832031 h 8.173828 V 6.8769531 Z m 1.587891,1.5878907 h 4.998047 v 7.7792972 h -4.998047 z"
       id="rect1655" />
    <g
       id="g1695"
       style="stroke-width:1.26999997;stroke-dasharray:none;fill:none;stroke:#ffffff;stroke-opacity:1;fill-opacity:1">
      <path
         id="path348"
         style="stroke-width:1.26999997;stroke-linecap:square;stroke-miterlimit:56.3;stroke-dasharray:none;fill:none;stroke:#ffffff;stroke-opacity:1;fill-opacity:1"
         d="M 3.7116779,2.3328071 A 1.3229166,1.3229166 0 0 1 2.3887613,3.6557237 1.3229166,1.3229166 0 0 1 1.0658447,2.3328071 1.3229166,1.3229166 0 0 1 2.3887613,1.0098904 1.3229166,1.3229166 0 0 1 3.7116779,2.3328071 Z" />
      <path
         id="circle1012"
         style="stroke-width:1.26999997;stroke-linecap:square;stroke-miterlimit:56.3;stroke-dasharray:none;fill:none;stroke:#ffffff;stroke-opacity:1;fill-opacity:1"
         d="M 3.7116779,7.3365655 A 1.3229166,1.3229166 0 0 1 2.3887613,8.6594821 1.3229166,1.3229166 0 0 1 1.0658447,7.3365655 1.3229166,1.3229166 0 0 1 2.3887613,6.0136489 1.3229166,1.3229166 0 0 1 3.7116779,7.3365655 Z" />
      <path
         id="circle1016"
         style="stroke-width:1.26999997;stroke-linecap:square;stroke-miterlimit:56.3;stroke-dasharray:none;fill:none;stroke:#ffffff;stroke-opacity:1;fill-opacity:1"
         d="M 3.7116779,17.344082 A 1.3229166,1.3229166 0 0 1 2.3887613,18.666999 1.3229166,1.3229166 0 0 1 1.0658447,17.344082 1.3229166,1.3229166 0 0 1 2.3887613,16.021165 1.3229166,1.3229166 0 0 1 3.7116779,17.344082 Z" />
      <path
         id="circle1018"
         style="stroke-width:1.26999997;stroke-linecap:square;stroke-miterlimit:56.3;stroke-dasharray:none;fill:none;stroke:#ffffff;stroke-opacity:1;fill-opacity:1"
         d="M 3.7116779,22.461397 A 1.3229166,1.3229166 0 0 1 2.3887613,23.784314 1.3229166,1.3229166 0 0 1 1.0658447,22.461397 1.3229166,1.3229166 0 0 1 2.3887613,21.138481 1.3229166,1.3229166 0 0 1 3.7116779,22.461397 Z" />
      <path
         id="circle1014"
         style="stroke-width:1.26999997;stroke-linecap:square;stroke-miterlimit:56.3;stroke-dasharray:none;fill:none;stroke:#ffffff;stroke-opacity:1;fill-opacity:1"
         d="M 3.5977413,12.544978 A 1.3229166,1.3229166 0 0 1 2.2748247,13.867895 1.3229166,1.3229166 0 0 1 0.95190808,12.544978 1.3229166,1.3229166 0 0 1 2.2748247,11.222062 1.3229166,1.3229166 0 0 1 3.5977413,12.544978 Z" />
    </g>
  </g>
</svg>
