<?xml version="1.0" encoding="UTF-8" standalone="no"?>
<svg
   height="96"
   viewBox="0 0 96 96"
   width="96"
   version="1.1"
   id="svg5974"
   sodipodi:docname="plotline.svg"
   inkscape:version="1.2.2 (b0a8486541, 2022-12-01)"
   inkscape:export-filename="plotline.png"
   inkscape:export-xdpi="96"
   inkscape:export-ydpi="96"
   xmlns:inkscape="http://www.inkscape.org/namespaces/inkscape"
   xmlns:sodipodi="http://sodipodi.sourceforge.net/DTD/sodipodi-0.dtd"
   xmlns="http://www.w3.org/2000/svg"
   xmlns:svg="http://www.w3.org/2000/svg">
  <defs
     id="defs5978" />
  <sodipodi:namedview
     id="namedview5976"
     pagecolor="#ffffff"
     bordercolor="#000000"
     borderopacity="0.25"
     inkscape:showpageshadow="2"
     inkscape:pageopacity="0"
     inkscape:pagecheckerboard="0"
     inkscape:deskcolor="#d1d1d1"
     showgrid="false"
     inkscape:zoom="8.1458333"
     inkscape:cx="47.938619"
     inkscape:cy="48"
     inkscape:window-width="1920"
     inkscape:window-height="1002"
     inkscape:window-x="0"
     inkscape:window-y="0"
     inkscape:window-maximized="1"
     inkscape:current-layer="svg5974" />
  <g
     id="path5972"
     transform="matrix(5.9955582,0,0,5.9627299,0.01379167,1.4004635)">
    <path
       id="path6825"
       style="color:#000000;fill:#ffffff;fill-opacity:1;stroke-width:0.817485;-inkscape-stroke:none"
       d="m 12.627739,1.4003906 v 2 H 9.0770844 c -0.7416702,0 -1.4090894,0.4141778 -1.7743078,0.8554688 v 0.00195 C 6.9087696,4.7303601 6.6821383,5.2434334 6.4278595,5.7304688 L 5.9445136,6.65625 5.4611677,5.7304688 C 5.255713,5.3369489 5.0597012,4.9228536 4.7840757,4.5214844 v -0.00195 C 4.411757,3.9745967 3.689312,3.4003906 2.8119428,3.4003906 H 0.09745612 V 4.5996094 H 2.8119428 c 0.1733156,0 0.3931891,0.020773 0.5669628,0.1484375 0.1720449,0.1263943 0.2357132,0.2521285 0.3548615,0.4277343 0.202565,0.2909871 0.3879329,0.6726603 0.6057118,1.09375 l 0.00204,0.00195 L 5.2449877,8 4.3394789,9.7304688 C 4.067682,10.251057 3.8601749,10.690553 3.611401,10.996094 l -0.00408,0.002 -0.00204,0.0039 c -0.095066,0.112351 -0.1576285,0.211155 -0.3201912,0.302735 -0.1625627,0.0916 -0.3295725,0.0957 -0.4731487,0.0957 H 0.09745612 v 1.199218 H 2.8119428 c 0.7416703,0 1.4090895,-0.414228 1.7743078,-0.855468 v -0.002 C 4.9802577,11.26963 5.2068889,10.756558 5.4611677,10.269522 L 5.9445136,9.34375 6.4278595,10.269531 c 0.1760553,0.337211 0.3498507,0.700209 0.5710415,1.050781 0.3808804,0.605642 1.1168592,1.279297 2.0781834,1.279297 h 3.5506546 v 2 h 0.208022 v -0.01367 l 0.424203,0.0059 c 0.161364,0.0023 0.318565,-0.05907 0.436439,-0.167969 l 2.08838,-2 c 0.248402,-0.23789 0.248402,-0.609766 0,-0.847656 L 13.70048,9.578125 C 13.582241,9.4672482 13.422888,9.4059131 13.259964,9.4082031 l -0.424203,0.00586 V 9.4003906 H 12.627739 V 11.400391 H 9.0770844 c -0.1944342,0 -0.4441348,-0.03662 -0.619988,-0.183594 C 8.2824418,11.070822 8.2116525,10.923785 8.0757222,10.705078 7.9005096,10.431301 7.7385308,10.096385 7.5495482,9.7304688 L 6.6440395,8 7.5495482,6.2695312 c 0.2717971,-0.5205891 0.4793041,-0.960047 0.728078,-1.265625 l 0.00408,-0.00195 0.00204,-0.00391 C 8.3788112,4.8856956 8.441373,4.7868904 8.6039356,4.6953125 8.7664983,4.6037296 8.9335081,4.5996094 9.0770844,4.5996094 h 3.5506546 v 2 h 0.208022 v -0.013672 l 0.424203,0.00586 c 0.161364,0.00227 0.318565,-0.059073 0.436439,-0.1679688 l 2.08838,-2 c 0.248402,-0.2378895 0.248402,-0.6097667 0,-0.8476562 L 13.70048,1.578125 C 13.582241,1.4672482 13.422888,1.4059131 13.259964,1.4082031 l -0.424203,0.00586 v -0.013672 z" />
  </g>
</svg>
