<?xml version="1.0" encoding="UTF-8" standalone="no"?>
<svg
   version="1.1"
   viewBox="0 0 96 96"
   id="svg7228"
   sodipodi:docname="summary.svg"
   inkscape:version="1.2.2 (b0a8486541, 2022-12-01)"
   width="96"
   height="96"
   inkscape:export-filename="summary.png"
   inkscape:export-xdpi="96"
   inkscape:export-ydpi="96"
   xmlns:inkscape="http://www.inkscape.org/namespaces/inkscape"
   xmlns:sodipodi="http://sodipodi.sourceforge.net/DTD/sodipodi-0.dtd"
   xmlns="http://www.w3.org/2000/svg"
   xmlns:svg="http://www.w3.org/2000/svg">
  <defs
     id="defs7232" />
  <sodipodi:namedview
     id="namedview7230"
     pagecolor="#ffffff"
     bordercolor="#000000"
     borderopacity="0.25"
     inkscape:showpageshadow="2"
     inkscape:pageopacity="0"
     inkscape:pagecheckerboard="0"
     inkscape:deskcolor="#d1d1d1"
     showgrid="false"
     inkscape:zoom="8.03125"
     inkscape:cx="48"
     inkscape:cy="48.996109"
     inkscape:window-width="1722"
     inkscape:window-height="991"
     inkscape:window-x="26"
     inkscape:window-y="23"
     inkscape:window-maximized="0"
     inkscape:current-layer="svg7228" />
  <g
     transform="matrix(5.9815323,0,0,6.2976978,-3780.3284,-1642.6991)"
     fill="#808080"
     id="g7226"
     style="fill:#ffffff;fill-opacity:1">
    <path
       d="m 634,261 c -1.108,0 -2,0.892 -2,2 v 8 c 0,1.108 0.892,2 2,2 h 6.5218 l 2.4785,3 2,-3 h 0.99975 c 1.108,0 2,-0.892 2,-2 v -8 c 0,-1.108 -0.892,-2 -2,-2 z m 0,1 h 12 c 0.554,0 1,0.446 1,1 v 8 c 0,0.554 -0.446,1 -1,1 h -1.4338 l -1.566,2.4 -1.966,-2.4 H 634 c -0.554,0 -1,-0.446 -1,-1 v -8 c 0,-0.554 0.446,-1 1,-1 z"
       enable-background="new"
       id="path7214"
       style="fill:#ffffff;fill-opacity:1" />
    <rect
       x="635"
       y="267"
       width="4"
       height="1"
       rx="0.25"
       ry="0.25"
       id="rect7216"
       style="fill:#ffffff;fill-opacity:1" />
    <rect
       x="635"
       y="269"
       width="2"
       height="1"
       rx="0.25"
       ry="0.25"
       id="rect7218"
       style="fill:#ffffff;fill-opacity:1" />
    <rect
       x="638"
       y="269"
       width="4"
       height="1"
       rx="0.25"
       ry="0.25"
       id="rect7220"
       style="fill:#ffffff;fill-opacity:1" />
    <rect
       x="643"
       y="269"
       width="2"
       height="1"
       rx="0.25"
       ry="0.25"
       id="rect7222"
       style="fill:#ffffff;fill-opacity:1" />
    <rect
       x="640"
       y="267"
       width="5"
       height="1"
       rx="0.25"
       ry="0.25"
       id="rect7224"
       style="fill:#ffffff;fill-opacity:1" />
  </g>
</svg>
