<?xml version="1.0" encoding="UTF-8" standalone="no"?>
<svg
   version="1.1"
   viewBox="0 0 96 96"
   id="svg1010"
   sodipodi:docname="world.svg"
   inkscape:version="1.2.2 (b0a8486541, 2022-12-01)"
   width="96"
   height="96"
   inkscape:export-filename="world.png"
   inkscape:export-xdpi="96"
   inkscape:export-ydpi="96"
   xmlns:inkscape="http://www.inkscape.org/namespaces/inkscape"
   xmlns:sodipodi="http://sodipodi.sourceforge.net/DTD/sodipodi-0.dtd"
   xmlns="http://www.w3.org/2000/svg"
   xmlns:svg="http://www.w3.org/2000/svg">
  <defs
     id="defs1014" />
  <sodipodi:namedview
     id="namedview1012"
     pagecolor="#ffffff"
     bordercolor="#000000"
     borderopacity="0.25"
     inkscape:showpageshadow="2"
     inkscape:pageopacity="0"
     inkscape:pagecheckerboard="0"
     inkscape:deskcolor="#d1d1d1"
     showgrid="false"
     inkscape:zoom="8.1458333"
     inkscape:cx="47.263427"
     inkscape:cy="48"
     inkscape:window-width="1920"
     inkscape:window-height="1002"
     inkscape:window-x="0"
     inkscape:window-y="0"
     inkscape:window-maximized="1"
     inkscape:current-layer="svg1010" />
  <g
     transform="translate(-72,-540)"
     id="g1008"
     style="fill:#ffffff;fill-opacity:1">
    <path
       d="M 119.73609,540 C 93.398897,540 72,561.43508 72,587.81282 c 0,26.37773 21.398897,47.81282 47.73609,47.81282 26.3372,0 47.7361,-21.43509 47.7361,-47.81282 0,-26.37774 -21.3989,-47.81282 -47.7361,-47.81282 z m -0.23331,5.98856 -0.12829,3.68869 5.4659,0.81713 3.68278,-3.57198 c 3.65074,0.78521 7.10791,2.06157 10.33726,3.73538 l -1.28202,2.06617 3.63618,3.2334 -3.63618,3.04669 1.42188,3.64196 8.08829,-3.8521 5.05799,3.8521 0.26792,-0.82877 c 1.09793,1.38221 2.08774,2.84958 3.00684,4.36573 l -5.1046,0.92219 -3.03011,-3.24512 -9.30018,0.60699 -5.66395,8.91828 3.84592,9.51356 12.54027,3.85216 2.4241,14.7897 3.03011,7.69248 2.13273,-1.21397 c -7.12342,12.88496 -20.83144,21.62993 -36.55929,21.62993 -23.044597,0 -41.76908,-18.75578 -41.76908,-41.83622 0,-4.8536 0.867067,-9.49563 2.389132,-13.83225 l 0.198105,0.81712 6.468241,1.82095 8.495831,6.28022 0.198105,9.11671 5.465846,7.49406 3.22827,20.26427 5.86211,3.64196 -1.60829,-7.49406 9.90643,-13.77428 4.24213,-9.31513 -9.90643,-9.32649 -10.72212,-5.05447 -4.440296,2.62648 -5.267738,-7.90287 -3.030108,1.42411 -2.622203,-4.45908 4.650032,-2.428 4.440292,2.62642 7.692071,-9.51356 11.11834,-6.88684 -3.03017,-5.67311 -9.10208,3.24512 -1.13045,-1.26071 c 5.4625,-2.67578 11.56586,-4.22468 18.04066,-4.26066 z"
       color="#000000"
       color-rendering="auto"
       fill="#808080"
       image-rendering="auto"
       shape-rendering="auto"
       solid-color="#000000"
       style="font-variant-ligatures:normal;font-variant-position:normal;font-variant-caps:normal;font-variant-numeric:normal;font-variant-alternates:normal;font-feature-settings:normal;text-indent:0;text-decoration-line:none;text-decoration-style:solid;text-decoration-color:#000000;text-transform:none;white-space:normal;shape-padding:0;isolation:auto;mix-blend-mode:normal;fill:#ffffff;fill-opacity:1;stroke-width:5.97181"
       id="path1006" />
  </g>
</svg>
