<?xml version="1.0" encoding="UTF-8" standalone="no"?>
<!-- Created with Inkscape (http://www.inkscape.org/) -->

<svg
   width="96"
   height="96"
   viewBox="0 0 25.4 25.4"
   version="1.1"
   id="svg1"
   inkscape:version="1.2.2 (b0a8486541, 2022-12-01)"
   sodipodi:docname="fidolio.svg"
   inkscape:export-filename="fidolio.png"
   inkscape:export-xdpi="96"
   inkscape:export-ydpi="96"
   xmlns:inkscape="http://www.inkscape.org/namespaces/inkscape"
   xmlns:sodipodi="http://sodipodi.sourceforge.net/DTD/sodipodi-0.dtd"
   xmlns="http://www.w3.org/2000/svg"
   xmlns:svg="http://www.w3.org/2000/svg">
  <sodipodi:namedview
     id="namedview1"
     pagecolor="#ffffff"
     bordercolor="#000000"
     borderopacity="0.25"
     inkscape:showpageshadow="2"
     inkscape:pageopacity="0"
     inkscape:pagecheckerboard="0"
     inkscape:deskcolor="#fcd3a6"
     inkscape:document-units="px"
     inkscape:zoom="8.1458333"
     inkscape:cx="47.447571"
     inkscape:cy="48.122762"
     inkscape:window-width="1920"
     inkscape:window-height="1002"
     inkscape:window-x="0"
     inkscape:window-y="0"
     inkscape:window-maximized="1"
     inkscape:current-layer="layer1"
     showgrid="false" />
  <defs
     id="defs1" />
  <g
     inkscape:label="Layer 1"
     inkscape:groupmode="layer"
     id="layer1">
    <path
       id="pathF"
       style="font-style:italic;font-weight:bold;font-size:22.1733px;font-family:JansonText;-inkscape-font-specification:'JansonText Bold Italic';stroke:#000000;stroke-width:0;stroke-linecap:square;stroke-miterlimit:56.3;stroke-dasharray:none;fill:#ffffff;fill-opacity:1"
       d="M 14.628048 -0.0093017578 C 14.576766 -0.0088622178 14.525567 -0.0073617239 14.474569 -0.0041341146 C 14.463521 -0.0029333912 14.452532 -0.0012599352 14.441496 0 L 5.2999349 0 C 2.3725228 0 -0.00051576432 2.3735564 -0.00051676432 5.3009684 L -0.00051676432 20.100065 C -0.00051676432 23.027477 2.3725228 25.400517 5.2999349 25.400517 L 20.099032 25.400517 C 23.026444 25.400517 25.399483 23.027477 25.399483 20.100065 L 25.399483 5.3009684 C 25.399483 2.3735564 23.026444 0 20.099032 0 L 14.862142 0 C 14.784253 -0.0063267049 14.706092 -0.009970687 14.628048 -0.0093017578 z M 5.2999349 1.0764201 L 11.538314 1.0764201 C 10.687105 1.6384097 9.9528237 2.3829402 9.4025269 3.2426961 C 8.1941433 4.798827 8.5894708 6.9064715 9.1146891 8.6444336 C 9.2135173 9.0075342 9.2996372 9.4686413 8.9637939 9.713619 C 8.8136044 9.8231734 7.0997828 10.734473 6.8331746 10.873238 C 6.9556363 11.127786 7.4854254 12.365677 7.593335 12.596647 C 7.7648535 12.503817 9.8933916 11.460164 10.084139 11.36158 C 10.919178 13.335927 12.991699 18.09399 14.046688 21.243148 C 14.132538 21.601324 14.330467 22.077856 14.150557 22.410002 C 12.884707 22.96134 12.032542 20.865686 10.469645 22.394499 C 10.022555 22.860747 10.118387 23.679646 10.476363 24.322546 L 5.2999349 24.322546 C 2.9505072 24.322546 1.0774536 22.449493 1.0774536 20.100065 L 1.0774536 5.3009684 C 1.0774536 2.9515408 2.9505072 1.0764201 5.2999349 1.0764201 z M 16.432589 1.0764201 L 20.099032 1.0764201 C 22.448458 1.0764201 24.32358 2.9515408 24.32358 5.3009684 L 24.32358 20.100065 C 24.32358 22.449493 22.448458 24.322546 20.099032 24.322546 L 14.778426 24.322546 C 14.915428 24.226566 15.04797 24.130188 15.175301 24.035225 C 16.82372 22.815072 17.3961 20.60097 16.974674 18.653642 C 16.624319 16.75049 16.109941 15.613602 15.75356 14.653369 C 15.452263 13.886675 13.684023 9.7510676 13.602271 9.4867594 C 14.542242 8.9854854 15.646231 8.4782984 16.586068 7.9767741 C 16.325555 7.3939074 16.06124 6.8127328 15.799036 6.2306274 C 14.853996 6.707071 13.807639 7.192483 12.861747 7.6672323 C 12.333182 6.2732917 11.586867 4.7861502 11.94139 3.2519979 C 12.070648 2.678176 12.618213 2.7378773 13.033313 2.949174 C 14.059085 3.4147309 15.563074 3.5198728 16.205212 2.3962362 C 16.51312 2.0116859 16.574074 1.5114743 16.432589 1.0764201 z " />
  </g>
</svg>
