<?xml version="1.0" encoding="UTF-8" standalone="no"?>
<svg
   viewBox="0 0 96 96"
   version="1.1"
   id="svg3020"
   sodipodi:docname="question-round-symbolic.svg"
   width="96"
   height="96"
   inkscape:version="1.2.2 (b0a8486541, 2022-12-01)"
   xmlns:inkscape="http://www.inkscape.org/namespaces/inkscape"
   xmlns:sodipodi="http://sodipodi.sourceforge.net/DTD/sodipodi-0.dtd"
   xmlns="http://www.w3.org/2000/svg"
   xmlns:svg="http://www.w3.org/2000/svg">
  <defs
     id="defs3024" />
  <sodipodi:namedview
     id="namedview3022"
     pagecolor="#ffffff"
     bordercolor="#000000"
     borderopacity="0.25"
     inkscape:showpageshadow="2"
     inkscape:pageopacity="0.0"
     inkscape:pagecheckerboard="true"
     inkscape:deskcolor="#d1d1d1"
     showgrid="false"
     inkscape:zoom="8.1458333"
     inkscape:cx="47.938619"
     inkscape:cy="48"
     inkscape:window-width="1920"
     inkscape:window-height="1002"
     inkscape:window-x="0"
     inkscape:window-y="0"
     inkscape:window-maximized="1"
     inkscape:current-layer="svg3020" />
  <g
     fill="#808080"
     id="g3018"
     transform="scale(5.9849345,5.9740249)">
    <path
       d="M 8,0 A 8,8 0 0 0 0,8 8,8 0 0 0 8,16 8,8 0 0 0 16,8 8,8 0 0 0 8,0 Z M 8,1 A 7,7 0 0 1 15,8 7,7 0 0 1 8,15 7,7 0 0 1 1,8 7,7 0 0 1 8,1 Z"
       id="path3014" />
    <path
       d="m 8.226,3.001 c -0.444,0 -0.864,0.051 -1.26,0.153 -0.36,0.094 -0.679,0.222 -0.973,0.371 l 0.3,0.832 c 0.574,-0.291 1.162,-0.45 1.764,-0.45 0.506,0 0.907,0.133 1.184,0.41 0.272,0.262 0.41,0.613 0.41,1.03 0,0.259 -0.06,0.501 -0.18,0.723 -0.108,0.214 -0.25,0.419 -0.424,0.613 -0.17,0.19 -0.35,0.379 -0.54,0.568 V 7.252 H 8.505 C 8.32,7.428 8.145,7.622 7.978,7.835 L 7.977,7.837 C 7.813,8.037 7.677,8.255 7.567,8.492 7.47,8.723 7.42,8.982 7.42,9.271 c 0,0.174 0.02,0.336 0.047,0.495 H 8.373 C 8.373,9.746 8.368,9.729 8.368,9.709 V 9.554 C 8.368,9.231 8.432,8.937 8.561,8.678 8.687,8.418 8.841,8.18 9.026,7.966 L 9.027,7.964 c 0.182,-0.22 0.382,-0.43 0.601,-0.63 0.214,-0.194 0.408,-0.398 0.584,-0.61 0.174,-0.211 0.32,-0.436 0.439,-0.673 0.115,-0.24 0.174,-0.511 0.174,-0.819 0,-0.243 -0.04,-0.497 -0.123,-0.762 V 4.468 L 10.701,4.466 A 1.703,1.703 0 0 0 10.301,3.745 2.161,2.161 0 0 0 9.503,3.219 H 9.5 L 9.498,3.217 C 9.177,3.075 8.752,3 8.225,3 Z M 8,11.304 c -0.27,0 -0.468,0.082 -0.619,0.25 a 0.854,0.854 0 0 0 -0.229,0.598 c 0,0.232 0.074,0.426 0.23,0.598 C 7.532,12.918 7.729,13 8,13 8.27,13 8.468,12.918 8.62,12.75 A 0.855,0.855 0 0 0 8.848,12.152 0.854,0.854 0 0 0 8.619,11.554 C 8.469,11.386 8.271,11.304 8,11.304 Z"
       font-family="Ubuntu"
       font-size="72.036px"
       font-weight="500"
       letter-spacing="0"
       text-anchor="middle"
       word-spacing="0"
       id="path3016" />
  </g>
</svg>
