<?xml version="1.0" encoding="UTF-8" standalone="no"?>
<svg
   viewBox="0 0 96 96"
   version="1.1"
   id="svg4"
   sodipodi:docname="western.svg"
   inkscape:version="1.2.2 (b0a8486541, 2022-12-01)"
   inkscape:export-filename="open-menu-symbolic.png"
   inkscape:export-xdpi="96"
   inkscape:export-ydpi="96"
   width="96"
   height="96"
   xmlns:inkscape="http://www.inkscape.org/namespaces/inkscape"
   xmlns:sodipodi="http://sodipodi.sourceforge.net/DTD/sodipodi-0.dtd"
   xmlns="http://www.w3.org/2000/svg"
   xmlns:svg="http://www.w3.org/2000/svg">
  <defs
     id="defs8" />
  <sodipodi:namedview
     id="namedview6"
     pagecolor="#ffffff"
     bordercolor="#000000"
     borderopacity="0.25"
     inkscape:showpageshadow="true"
     inkscape:pageopacity="0.0"
     inkscape:pagecheckerboard="true"
     inkscape:deskcolor="#d1d1d1"
     showgrid="false"
     showguides="true"
     inkscape:zoom="8.1458333"
     inkscape:cx="48"
     inkscape:cy="48.122762"
     inkscape:window-width="1920"
     inkscape:window-height="1002"
     inkscape:window-x="0"
     inkscape:window-y="0"
     inkscape:window-maximized="1"
     inkscape:current-layer="svg4">
    <sodipodi:guide
       position="48,48"
       orientation="1,0"
       id="guide291"
       inkscape:locked="false" />
    <sodipodi:guide
       position="48,48"
       orientation="0,-1"
       id="guide293"
       inkscape:locked="false" />
    <sodipodi:guide
       position="18,51"
       orientation="1,0"
       id="guide5786"
       inkscape:locked="false" />
    <sodipodi:guide
       position="45,78"
       orientation="0,-1"
       id="guide5788"
       inkscape:locked="false" />
    <sodipodi:guide
       position="51,18"
       orientation="0,-1"
       id="guide5790"
       inkscape:locked="false" />
    <sodipodi:guide
       position="78,48"
       orientation="1,0"
       id="guide5792"
       inkscape:locked="false" />
  </sodipodi:namedview>
  <rect
     style="fill:none;stroke:none;stroke-width:6;stroke-linecap:butt;stroke-linejoin:bevel;stroke-miterlimit:56.3;stroke-dashoffset:10.3582;stroke-opacity:1;paint-order:markers fill stroke;image-rendering:auto"
     id="rect1000"
     width="96"
     height="96"
     x="0"
     y="0"
     inkscape:label="#bounds"
     sodipodi:insensitive="true" />
  <path
     style="fill:#ffffff;fill-opacity:0;stroke:#7f7f7f;stroke-width:6;stroke-linecap:square;stroke-linejoin:round;stroke-miterlimit:56.3;stroke-dasharray:none;stroke-opacity:1"
     d="M 62.780226,51.855014 C 62.181276,45.068761 61.224167,33.287797 58.954554,28.274 c -2.269617,-5.013796 -3.290031,-7.133639 -5.466051,-7.133639 -2.176017,0 -3.393427,3.037874 -5.346369,3.028693 -1.646455,-0.07564 -2.482406,-2.951767 -4.733054,-2.951767 -2.250651,0 -3.859172,2.062898 -5.95311,7.083007 -2.093938,5.02011 -4.004772,18.835105 -4.004772,24.761377 0,5.926272 7.844707,10.961581 14.624773,10.961581 6.422271,0 14.884019,-5.306731 14.704255,-12.168238 z"
     id="path525"
     sodipodi:nodetypes="czzczzzcc" />
  <path
     style="fill:#ffffff;fill-opacity:0;stroke:#7f7f7f;stroke-width:6.07043;stroke-linecap:square;stroke-linejoin:round;stroke-miterlimit:56.3;stroke-dasharray:none;stroke-opacity:1"
     d="m 48.198185,54.754604 c 18.093553,0 14.061818,-11.692192 22.532372,-11.692192 5.745433,0 7.300094,6.536981 7.144625,9.773309 -0.78678,16.378051 -13.627036,19.579184 -21.268119,21.280308 -2.30759,0.513737 -6.12147,0.647017 -8.430855,0.647017 -2.309384,0 -6.10492,-0.138048 -8.351852,-0.672183 -6.802325,-1.71129 -20.378473,-4.836882 -21.653153,-21.920676 -0.300994,-4.034043 2.064304,-9.188634 7.850736,-9.057929 8.175283,0.0743 4.082695,11.642346 22.176246,11.642346 z"
     id="path527"
     sodipodi:nodetypes="zcsszcscz" />
</svg>
