/* XPM */
static const char *fidolio[] = {
/* columns rows colors chars-per-pixel */
"96 96 2 1 ",
"  c gray",
". c None",
/* pixels */
"................                                                                ................",
"............                                                                        ............",
"..........                                                                            ..........",
".........                                                                              .........",
".......         ...........................                   ..................         .......",
"......       .............................                    .....................       ......",
".....       ............................                      ......................       .....",
"....      .............................                       ........................      ....",
"....     .............................                        .........................     ....",
"...     ..............................                       ...........................     ...",
"..     ..............................                       .............................     ..",
"..     .............................         .....         ..............................     ..",
".     .............................          .............................................     .",
".    ..............................          ..............................................    .",
".    .............................           ..............................................    .",
".    .............................           ..............................................    .",
"    .............................            ...............................................    ",
"    .............................            ...............................................    ",
"    .............................            ...............................................    ",
"    .............................            ...............................................    ",
"    .............................             ..............................................    ",
"    .............................             ..............................................    ",
"    .............................             ..............................................    ",
"    .............................              .............................................    ",
"    .............................              ...........  ................................    ",
"    .............................              .........     ...............................    ",
"    .............................               ......       ...............................    ",
"    .............................               ....         ...............................    ",
"    .............................               ..            ..............................    ",
"    ..............................                            ..............................    ",
"    ..............................                            ..............................    ",
"    ..............................                          ................................    ",
"    ..............................                        ..................................    ",
"    ...............................                     ....................................    ",
"    ...............................                   ......................................    ",
"    ...............................                 ........................................    ",
"    ..............................                  ........................................    ",
"    ............................                    ........................................    ",
"    ...........................                      .......................................    ",
"    .........................                        .......................................    ",
"    .......................                          .......................................    ",
"    ......................                            ......................................    ",
"    ......................                            ......................................    ",
"    .......................          .                 .....................................    ",
"    .......................        ....                .....................................    ",
"    ........................     ......                .....................................    ",
"    ........................   .........                ....................................    ",
"    ....................................                ....................................    ",
"    ....................................                 ...................................    ",
"    .....................................                ...................................    ",
"    .....................................                 ..................................    ",
"    ......................................                ..................................    ",
"    ......................................                ..................................    ",
"    .......................................                .................................    ",
"    .......................................                .................................    ",
"    .......................................                 ................................    ",
"    ........................................                ................................    ",
"    ........................................                ................................    ",
"    .........................................                ...............................    ",
"    .........................................                ...............................    ",
"    ..........................................               ...............................    ",
"    ..........................................                ..............................    ",
"    ..........................................                ..............................    ",
"    ...........................................               ..............................    ",
"    ...........................................                .............................    ",
"    ............................................               .............................    ",
"    ............................................               .............................    ",
"    ............................................               .............................    ",
"    .............................................               ............................    ",
"    .............................................               ............................    ",
"    ..............................................              ............................    ",
"    ..............................................              ............................    ",
"    ..............................................              ............................    ",
"    ...............................................              ...........................    ",
"    ...............................................              ...........................    ",
"    ...............................................              ...........................    ",
"    ................................................             ...........................    ",
"    ................................................            ............................    ",
"    ................................................            ............................    ",
"    .................................................           ............................    ",
".    ................................................           ...........................    .",
".    ................................................           ...........................    .",
".    .................................................         ............................    .",
".     ...................................      .......         ...........................     .",
"..     .................................          ...          ..........................     ..",
"..     ................................                       ...........................     ..",
"...     ...............................                      ...........................     ...",
"....     .............................                       ..........................     ....",
"....      .............................                     ..........................      ....",
".....       ...........................                    .........................       .....",
"......       ..........................                   .........................       ......",
".......         .......................                  .......................         .......",
".........                                                                              .........",
"..........                                                                            ..........",
"............                                                                        ............",
"................                                                                ................"
};
