/* XPM */
static const char *fidolio[] = {
/* columns rows colors chars-per-pixel */
"16 16 2 1 ",
"  c gray",
". c None",
/* pixels */
" .            . ",
" .....    ..... ",
" .....  ....... ",
" ....   ....... ",
" .....  . ..... ",
" .....    ..... ",
" ....    ...... ",
" ....    ...... ",
" ......   ..... ",
" ......   ..... ",
" .......  ..... ",
" .......   .... ",
" ........  .... ",
" ........  .... ",
" ......   ..... ",
" .            . "
};
