/* XPM */
static const char *fidolio_tall[] = {
/* columns rows colors chars-per-pixel */
"104 88 3 1 ",
"  c gray",
". c gray",
"X c None",
/* pixels */
"XXXXXXXXXXXXXXXXXXXXXXXXXXXXXXXXXXX..................................XXXXXXXXXXXXXXXXXXXXXXXXXXXXXXXXXXX",
"XXXXXXXXXXXXXXXXXXXXXXXXXXXXXXXXX......................................XXXXXXXXXXXXXXXXXXXXXXXXXXXXXXXXX",
"XXXXXXXXXXXXXXXXXXXXXXXXXXXXXXX....XXXXXXXXXXXXXX..........XXXXXXXXXX....XXXXXXXXXXXXXXXXXXXXXXXXXXXXXXX",
"XXXXXXXXXXXXXXXXXXXXXXXXXXXXXX...XXXXXXXXXXXXXXX...........XXXXXXXXXXXX...XXXXXXXXXXXXXXXXXXXXXXXXXXXXXX",
"XXXXXXXXXXXXXXXXXXXXXXXXXXXXXX..XXXXXXXXXXXXXXX............XXXXXXXXXXXXX..XXXXXXXXXXXXXXXXXXXXXXXXXXXXXX",
"XXXXXXXXXXXXXXXXXXXXXXXXXXXXX..XXXXXXXXXXXXXXX.....X......XXXXXXXXXXXXXXX..XXXXXXXXXXXXXXXXXXXXXXXXXXXXX",
"XXXXXXXXXXXXXXXXXXXXXXXXXXXXX..XXXXXXXXXXXXXXX.....XXXXXXXXXXXXXXXXXXXXXX..XXXXXXXXXXXXXXXXXXXXXXXXXXXXX",
"XXXXXXXXXXXXXXXXXXXXXXXXXXXX..XXXXXXXXXXXXXXX.....XXXXXXXXXXXXXXXXXXXXXXXX..XXXXXXXXXXXXXXXXXXXXXXXXXXXX",
"XXXXXXXXXXXXXXXXXXXXXXXXXXXX..XXXXXXXXXXXXXXX.....XXXXXXXXXXXXXXXXXXXXXXXX..XXXXXXXXXXXXXXXXXXXXXXXXXXXX",
"XXXXXXXXXXXXXXXXXXXXXXXXXXXX..XXXXXXXXXXXXXX.......XXXXXXXXXXXXXXXXXXXXXXX..XXXXXXXXXXXXXXXXXXXXXXXXXXXX",
"XXXXXXXXXXXXXXXXXXXXXXXXXXXX..XXXXXXXXXXXXXX.......XXXXXXXXXXXXXXXXXXXXXXX..XXXXXXXXXXXXXXXXXXXXXXXXXXXX",
"XXXXXXXXXXXXXXXXXXXXXXXXXXXX..XXXXXXXXXXXXXX.......XXXXXXXXXXXXXXXXXXXXXXX..XXXXXXXXXXXXXXXXXXXXXXXXXXXX",
"XXXXXXXXXXXXXXXXXXXXXXXXXXXX..XXXXXXXXXXXXXX........XXXX..XXXXXXXXXXXXXXXX..XXXXXXXXXXXXXXXXXXXXXXXXXXXX",
"XXXXXXXXXXXXXXXXXXXXXXXXXXXX..XXXXXXXXXXXXXXX.......XX.....XXXXXXXXXXXXXXX..XXXXXXXXXXXXXXXXXXXXXXXXXXXX",
"XXXXXXXXXXXXXXXXXXXXXXXXXXXX..XXXXXXXXXXXXXXX..............XXXXXXXXXXXXXXX..XXXXXXXXXXXXXXXXXXXXXXXXXXXX",
"XXXXXXXXXXXXXXXXXXXXXXXXXXXX..XXXXXXXXXXXXXXX..............XXXXXXXXXXXXXXX..XXXXXXXXXXXXXXXXXXXXXXXXXXXX",
"XXXXXXXXXXXXXXXXXXXXXXXXXXXX..XXXXXXXXXXXXXXX............XXXXXXXXXXXXXXXXX..XXXXXXXXXXXXXXXXXXXXXXXXXXXX",
"XXXXXXXXXXXXXXXXXXXXXXXXXXXX..XXXXXXXXXXXXXXX..........XXXXXXXXXXXXXXXXXXX..XXXXXXXXXXXXXXXXXXXXXXXXXXXX",
"XXXXXXXXXXXXXXXXXXXXXXXXXXXX..XXXXXXXXXXXXXXX.........XXXXXXXXXXXXXXXXXXXX..XXXXXXXXXXXXXXXXXXXXXXXXXXXX",
"XXXXXXXXXXXXXXXXXXXXXXXXXXXX..XXXXXXXXXXXXX...........XXXXXXXXXXXXXXXXXXXX..XXXXXXXXXXXXXXXXXXXXXXXXXXXX",
"XXXXXXXXXXXXXXXXXXXXXXXXXXXX..XXXXXXXXXXX..............XXXXXXXXXXXXXXXXXXX..XXXXXXXXXXXXXXXXXXXXXXXXXXXX",
"XXXXXXXXXXXXXXXXXXXXXXXXXXXX..XXXXXXXXXXX..............XXXXXXXXXXXXXXXXXXX..XXXXXXXXXXXXXXXXXXXXXXXXXXXX",
"XXXXXXXXXXXXXXXXXXXXXXXXXXXX..XXXXXXXXXXXX...XX.........XXXXXXXXXXXXXXXXXX..XXXXXXXXXXXXXXXXXXXXXXXXXXXX",
"XXXXXXXXXXXXXXXXXXXXXXXXXXXX..XXXXXXXXXXXXXXXXXX........XXXXXXXXXXXXXXXXXX..XXXXXXXXXXXXXXXXXXXXXXXXXXXX",
"XXXXXXXXXXXXXXXXXXXXXXXXXXXX..XXXXXXXXXXXXXXXXXX........XXXXXXXXXXXXXXXXXX..XXXXXXXXXXXXXXXXXXXXXXXXXXXX",
"XXXXXXXXXXXXXXXXXXXXXXXXXXXX..XXXXXXXXXXXXXXXXXXX........XXXXXXXXXXXXXXXXX..XXXXXXXXXXXXXXXXXXXXXXXXXXXX",
"XXXXXXXXXXXXXXXXXXXXXXXXXXXX..XXXXXXXXXXXXXXXXXXX........XXXXXXXXXXXXXXXXX..XXXXXXXXXXXXXXXXXXXXXXXXXXXX",
"XXXXXXXXXXXXXXXXXXXXXXXXXXXX..XXXXXXXXXXXXXXXXXXXX........XXXXXXXXXXXXXXXX..XXXXXXXXXXXXXXXXXXXXXXXXXXXX",
"XXXXXXXXXXXXXXXXXXXXXXXXXXXX..XXXXXXXXXXXXXXXXXXXX........XXXXXXXXXXXXXXXX..XXXXXXXXXXXXXXXXXXXXXXXXXXXX",
"XXXXXXXXXXXXXXXXXXXXXXXXXXXX..XXXXXXXXXXXXXXXXXXXX........XXXXXXXXXXXXXXXX..XXXXXXXXXXXXXXXXXXXXXXXXXXXX",
"XXXXXXXXXXXXXXXXXXXXXXXXXXXX..XXXXXXXXXXXXXXXXXXXXX........XXXXXXXXXXXXXXX..XXXXXXXXXXXXXXXXXXXXXXXXXXXX",
"XXXXXXXXXXXXXXXXXXXXXXXXXXXX..XXXXXXXXXXXXXXXXXXXXX........XXXXXXXXXXXXXXX..XXXXXXXXXXXXXXXXXXXXXXXXXXXX",
"XXXXXXXXXXXXXXXXXXXXXXXXXXXX..XXXXXXXXXXXXXXXXXXXXXX.......XXXXXXXXXXXXXXX..XXXXXXXXXXXXXXXXXXXXXXXXXXXX",
"XXXXXXXXXXXXXXXXXXXXXXXXXXXX..XXXXXXXXXXXXXXXXXXXXXX........XXXXXXXXXXXXXX..XXXXXXXXXXXXXXXXXXXXXXXXXXXX",
"XXXXXXXXXXXXXXXXXXXXXXXXXXXX..XXXXXXXXXXXXXXXXXXXXXX........XXXXXXXXXXXXXX..XXXXXXXXXXXXXXXXXXXXXXXXXXXX",
"XXXXXXXXXXXXXXXXXXXXXXXXXXXX..XXXXXXXXXXXXXXXXXXXXXXX.......XXXXXXXXXXXXXX..XXXXXXXXXXXXXXXXXXXXXXXXXXXX",
"XXXXXXXXXXXXXXXXXXXXXXXXXXXX..XXXXXXXXXXXXXXXXXXXXXXX.......XXXXXXXXXXXXXX..XXXXXXXXXXXXXXXXXXXXXXXXXXXX",
"XXXXXXXXXXXXXXXXXXXXXXXXXXXX..XXXXXXXXXXXXXXXXXXXXXXXX......XXXXXXXXXXXXXX..XXXXXXXXXXXXXXXXXXXXXXXXXXXX",
"XXXXXXXXXXXXXXXXXXXXXXXXXXXX..XXXXXXXXXXXXXXXXXXXXXXXX......XXXXXXXXXXXXXX..XXXXXXXXXXXXXXXXXXXXXXXXXXXX",
"XXXXXXXXXXXXXXXXXXXXXXXXXXXX..XXXXXXXXXXXXXXXXXXXXXXXX......XXXXXXXXXXXXXX..XXXXXXXXXXXXXXXXXXXXXXXXXXXX",
"XXXXXXXXXXXXXXXXXXXXXXXXXXXX..XXXXXXXXXXXXXXXXXXXXXXXXX.....XXXXXXXXXXXXXX..XXXXXXXXXXXXXXXXXXXXXXXXXXXX",
"XXXXXXXXXXXXXXXXXXXXXXXXXXXXX..XXXXXXXXXXXXXXXXXX..XXXX.....XXXXXXXXXXXXX..XXXXXXXXXXXXXXXXXXXXXXXXXXXXX",
"XXXXXXXXXXXXXXXXXXXXXXXXXXXXX..XXXXXXXXXXXXXXXXX...........XXXXXXXXXXXXXX..XXXXXXXXXXXXXXXXXXXXXXXXXXXXX",
"XXXXXXXXXXXXXXXXXXXXXXXXXXXXXX..XXXXXXXXXXXXXXX...........XXXXXXXXXXXXXX..XXXXXXXXXXXXXXXXXXXXXXXXXXXXXX",
"XXXXXXXXXXXXXXXXXXXXXXXXXXXXXX...XXXXXXXXXXXXXX...........XXXXXXXXXXXXX...XXXXXXXXXXXXXXXXXXXXXXXXXXXXXX",
"XXXXXXXXXXXXXXXXXXXXXXXXXXXXXXX.....XXXXXXXXXXX..........XXXXXXXXXXX.....XXXXXXXXXXXXXXXXXXXXXXXXXXXXXXX",
"XXXXXXXXXXXXXXXXXXXXXXXXXXXXXXXXX......................................XXXXXXXXXXXXXXXXXXXXXXXXXXXXXXXXX",
"XXXXXXXXXXXXXXXXXXXXXXXXXXXXXXXXXXX..................................XXXXXXXXXXXXXXXXXXXXXXXXXXXXXXXXXXX",
"XXXXXXXXXXXXXXXXXXXXXXXXXXXXXXXXXXXXXXXXXXXXXXXXXXXXXXXXXXXXXXXXXXXXXXXXXXXXXXXXXXXXXXXXXXXXXXXXXXXXXXXX",
"XXXXXXXXXXXXXXXXXXXXXXXXXXXXXXXXXXXXXXXXXXXXXXXXXXXXXXXXXXXXXXXXXXXXXXXXXXXXXXXXXXXXXXXXXXXXXXXXXXXXXXXX",
"XXXXXXXXXXXXXXXXXXXXXXXXXXXXXXXXXXXXXXXXXXXXXXXXXXXXXXXXXXXXXXXXXXXXXXXXXXXXXXXXXXXXXXXXXXXXXXXXXXXXXXXX",
"XXXXXXXXXXXXXXXXXXXXXXXXXXXXXXXXXXXXXXXXXXXXXXXXXXXXXXXXXXXXXXXXXXXXXXXXXXXXXXXXXXXXXXXXXXXXXXXXXXXXXXXX",
"XXXXXXXXXXXXXXXXXXXXXXXXXXXXXXXXXXXXXXXXXXXXXXXXXXXXXXXXXXXXXXXXXXXXXXXXXXXXXXXXXXXXXXXXXXXXXXXXXXXXXXXX",
"XXXXXXXXXXXXXXXXXXXXXXXXXXXXXXXXXXXXXXXXXXXXXXXXXXXXXXXXXXXXXXXXXXXXXXXXXXXXXXXXXXXXXXXXXXXXXXXXXXXXXXXX",
"XXXXXXXXXXXXXXXXXXXXXXXXXXXXXXXXXXXXXXXXXXXXXXXXXXXXXXXXXXXXXXXXXXXXXXXXXXXXXXXXXXXXXXXXXXXXXXXXXXXXXXXX",
"XXXXXXXXXXXXXXXXXXXXXXXXXXXXXXXXXXXXXXXXXXXXXXXXXXXXXXXXXXXXXXXXXXXXXXXXXXXXXXXXXXXXXXXXXXXXXXXXXXXXXXXX",
"XXXXXXXXX.......XXXXXXXXXXXXXXXXXXXXXX....XXXXXXXXXXXXXXXXXXXXXXXXX....XXXXXXXXXXXXXXXXXXXXXXXXXXXXXXXXX",
"XXXXXXXX........XX..XXXXXXXXXXXXXXX.......XXXXXXXXXXXXXXXXXXXXXX......XXXXXXXXX..XXXXXXXXXXXXXXXXXXXXXXX",
"XXXXXX..XXXX....X....XXXXXXXXXXXXXXXX.....XXXXXXXXXXXXXXXXXXXXXXXX....XXXXXXXX....XXXXXXXXXXXXXXXXXXXXXX",
"XXXXXX..XXXXXXXXX....XXXXXXXXXXXXXXXXX....XXXXXXXXXXXXXXXXXXXXXXXXX...XXXXXXX.....XXXXXXXXXXXXXXXXXXXXXX",
"XXXXX..XXXXXXXXXX....XXXXXXXXXXXXXXXXX....XXXXXXXXXXXXXXXXXXXXXXXXX...XXXXXXXX....XXXXXXXXXXXXXXXXXXXXXX",
"XXXXX..XXXXXXXXXXX..XXXXXXXXXXXXXXXXXX....XXXXXXXXXXXXXXXXXXXXXXXXX...XXXXXXXXX..XXXXXXXXXXXXXXXXXXXXXXX",
"XXXX...XXXXXXXXXXXXXXXXXXXXXXXXXXXXXXX...XXXXXXXXXXXXXXXXXXXXXXXXXX...XXXXXXXXXXXXXXXXXXXXXXXXXXXXXXXXXX",
"XXXX...XXXXXXXXXXXXXXXXXXXXXXXXXXXXXXX...XXXXXXXXXXXXXXXXXXXXXXXXXX...XXXXXXXXXXXXXXXXXXXXXXXXXXXXXXXXXX",
"XXXX...XXXXXXXXXXXXXXXXXXXXXXXXXXXXXXX...XXXXXXXXXXXXXXXXXXXXXXXXXX...XXXXXXXXXXXXXXXXXXXXXXXXXXXXXXXXXX",
"XXXX...XXXXXXXXXXXXXXXXXXXXXXXXXXXXXXX...XXXXXXXXXXXXXXXXXXXXXXXXXX...XXXXXXXXXXXXXXXXXXXXXXXXXXXXXXXXXX",
"XXXX...XXXXXXXXXXXXXXXXXXXXXXXXXXXXXXX...XXXXXXXXXXXXXXXXXXXXXXXXXX...XXXXXXXXXXXXXXXXXXXXXXXXXXXXXXXXXX",
"XXXX...XXXXXXXXXXXXXXXXXXXXXXXXXXXXXXX...XXXXXXXXXXXXXXXXXXXXXXXXXX...XXXXXXXXXXXXXXXXXXXXXXXXXXXXXXXXXX",
"XXX....XXXXXXXXXXXX..XXXXXXXXXX.....XX...XXXXXXXXXXX....XXXXXXXXXXX...XXXXXXXXXX..XXXXXXXXXX....XXXXXXXX",
"XX...........XXX.....XXXXXXXX...XXX......XXXXXXXX....XX....XXXXXXXX...XXXXXX.....XXXXXXXX....XX....XXXXX",
".............XX......XXXXXXX..XXXXXXX....XXXXXXX...XXXXXX....XXXXXX...XXXXX......XXXXXXX...XXXXXX....XXX",
"XXX....XXXXXXXXXX....XXXXXX..XXXXXXXXX...XXXXXX...XXXXXXXX....XXXXX...XXXXXXX....XXXXXX...XXXXXXXX....XX",
"XXXX...XXXXXXXXXX....XXXXX...XXXXXXXXX...XXXXX...XXXXXXXXXX...XXXXX...XXXXXXXX...XXXXX...XXXXXXXXXX...XX",
"XXXX...XXXXXXXXXXX...XXXX...XXXXXXXXXX...XXXX....XXXXXXXXXX....XXXX...XXXXXXXX...XXXX....XXXXXXXXXX....X",
"XXXX...XXXXXXXXXXX...XXXX...XXXXXXXXXX...XXXX....XXXXXXXXXXX...XXXX...XXXXXXXX...XXXX....XXXXXXXXXX....X",
"XXXX...XXXXXXXXXXX...XXX....XXXXXXXXXX...XXX....XXXXXXXXXXXX....XXX...XXXXXXXX...XXX....XXXXXXXXXXXX....",
"XXXX...XXXXXXXXXXX...XXX....XXXXXXXXXX...XXX....XXXXXXXXXXXX....XXX...XXXXXXXX...XXX....XXXXXXXXXXXX....",
"XXXX...XXXXXXXXXXX...XXX....XXXXXXXXXX...XXX....XXXXXXXXXXXX....XXX...XXXXXXXX...XXX....XXXXXXXXXXXX....",
"XXXX...XXXXXXXXXXX...XXX....XXXXXXXXXX...XXX....XXXXXXXXXXXX....XXX...XXXXXXXX...XXX....XXXXXXXXXXXX....",
"XXXX...XXXXXXXXXXX...XXX....XXXXXXXXXX...XXX....XXXXXXXXXXXX....XXX...XXXXXXXX...XXX....XXXXXXXXXXXX....",
"XXXX...XXXXXXXXXXX...XXX....XXXXXXXXXX...XXX....XXXXXXXXXXXX....XXX...XXXXXXXX...XXX....XXXXXXXXXXXX....",
"XXXX...XXXXXXXXXXX...XXX....XXXXXXXXXX...XXXX...XXXXXXXXXXXX....XXX...XXXXXXXX...XXXX...XXXXXXXXXXXX....",
"XXXX...XXXXXXXXXXX...XXXX....XXXXXXXXX...XXXX....XXXXXXXXXX....XXXX...XXXXXXXX...XXXX....XXXXXXXXXX....X",
"XXXX...XXXXXXXXXXX...XXXX....XXXXXXXXX....XXXX...XXXXXXXXXX....XXXX...XXXXXXXX...XXXXX...XXXXXXXXXX....X",
"XXXX...XXXXXXXXXX....XXXXX....XXXXXXXX....XXXX....XXXXXXXXX...XXXXX...XXXXXXXX...XXXXX....XXXXXXXXX...XX",
"XXX....XXXXXXXXXX....XXXXX.....XXXXXX.....XXXXX...XXXXXXXX...XXXXXX....XXXXXXX....XXXXX...XXXXXXXX...XXX",
"X.........XXXXX........XXXX..........X......XXXXX...XXXX....XXXX.........XX.........XXXXX...XXXX....XXXX",
"X.. XXX ..XXXXX.  XXX .XXXXXX......XXX...XXXXXXXXX........XXXXXX..  XXX .XX..  XXX .XXXXXX........XXXXXX"
};
