/* XPM */
static const char *folder[] = {
/* columns rows colors chars-per-pixel */
"24 24 2 1 ",
"  c gray",
". c None",
/* pixels */
"........................",
"........................",
"..         .............",
".           ............",
"  .........  ...........",
"  ..........          ..",
"  ..........  .......  .",
"  .........  .........  ",
"            ..........  ",
"   ...................  ",
"  ....................  ",
"  ....................  ",
"  ....................  ",
"  ....................  ",
"  ....................  ",
"  ....................  ",
"  ....................  ",
"  ....................  ",
"  ....................  ",
"  ....................  ",
".                      .",
"..                    ..",
"........................",
"........................"
};
