/* XPM */
static const char *open_menu[] = {
/* columns rows colors chars-per-pixel */
"24 24 2 1 ",
"  c #808080",
". c None",
/* pixels */
"........................",
"                        ",
"                        ",
"........................",
"........................",
"........................",
"........................",
"........................",
"........................",
"........................",
"........................",
"                        ",
"                        ",
"........................",
"........................",
"........................",
"........................",
"........................",
"........................",
"........................",
"........................",
"                        ",
"                        ",
"........................"
};
