/* XPM */
static const char *paused[] = {
/* columns rows colors chars-per-pixel */
"60 60 2 1 ",
"  c gray",
". c None",
/* pixels */
"                        ............                        ",
"                        ............                        ",
"                        ............                        ",
"                        ............                        ",
"                        ............                        ",
"                        ............                        ",
"                        ............                        ",
"                        ............                        ",
"                        ............                        ",
"                        ............                        ",
"                        ............                        ",
"                        ............                        ",
"                        ............                        ",
"                        ............                        ",
"                        ............                        ",
"                        ............                        ",
"                        ............                        ",
"                        ............                        ",
"                        ............                        ",
"                        ............                        ",
"                        ............                        ",
"                        ............                        ",
"                        ............                        ",
"                        ............                        ",
"                        ............                        ",
"                        ............                        ",
"                        ............                        ",
"                        ............                        ",
"                        ............                        ",
"                        ............                        ",
"                        ............                        ",
"                        ............                        ",
"                        ............                        ",
"                        ............                        ",
"                        ............                        ",
"                        ............                        ",
"                        ............                        ",
"                        ............                        ",
"                        ............                        ",
"                        ............                        ",
"                        ............                        ",
"                        ............                        ",
"                        ............                        ",
"                        ............                        ",
"                        ............                        ",
"                        ............                        ",
"                        ............                        ",
"                        ............                        ",
"                        ............                        ",
"                        ............                        ",
"                        ............                        ",
"                        ............                        ",
"                        ............                        ",
"                        ............                        ",
"                        ............                        ",
"                        ............                        ",
"                        ............                        ",
"                        ............                        ",
"                        ............                        ",
"                        ............                        "
};
