/* XPM */
static const char *project[] = {
/* columns rows colors chars-per-pixel */
"96 96 2 1 ",
"  c gray",
". c None",
/* pixels */
"................................................................................................",
"...............................................  ...............................................",
"..............................................    ..............................................",
".............................................      .............................................",
"............................................        ............................................",
"...........................................          ...........................................",
"..........................................            ..........................................",
".........................................              .........................................",
"........................................                ........................................",
".......................................                  .......................................",
"......................................         ..         ......................................",
".....................................         ....         .....................................",
"....................................         ......         ....................................",
"...................................         ........         ...................................",
"..................................         ..........         ..................................",
".................................         ............        ..................................",
"................................         ..............        .................................",
"...............................         ................        .........           ............",
"..............................         ..................        ........           ............",
".............................         ....................        ........          ............",
"............................         ......................        ........         ............",
"...........................         ........................        ........        ............",
"..........................         ..........................        ........       ............",
".........................         ............................        ........      ............",
"........................         ..............................        ........     ............",
"........................        ................................        ........    ............",
".......................        ..................................        ........   ............",
"......................        ...................................         ........  ............",
".....................        .....................................         ........ ............",
"....................        .......................................         ....................",
"...................        .........................................         ...................",
"..................        ...........................................         ..................",
".................        .............................................         .................",
"................        ...............................................         ................",
"...............        .................................................         ...............",
"..............        ...................................................         ..............",
".............         ....................................................         .............",
"............         ......................................................         ............",
"...........         ........................................................         ...........",
"..........         ..........................................................         ..........",
".........         ............................................................         .........",
"........         .............................................................          ........",
".......          .............................................................           .......",
"......           .............................................................           .......",
".....            .............................................................            ......",
"....             .............................................................             .....",
"...              .............................................................              ....",
"..               .............................................................               ...",
".         .      .............................................................      ..        ..",
"         ..      .............................................................      ...        .",
".       ...      .............................................................      ....       .",
"..     ....      .............................................................      .....     ..",
"...   .....      .............................................................      ......   ...",
".... ......      .............................................................      ....... ....",
"...........      .............................................................      ............",
"...........      ...............................                  ............      ............",
"...........      ...............................                  ............      ............",
"...........      ...............................                  ............      ............",
"...........      ...............................                  ............      ............",
"...........      ...............................                  ............      ............",
"...........      ...............................                  ............      ............",
"...........      ...............................                  ............      ............",
"...........      ...............................                  ............      ............",
"...........      ...............................                  ............      ............",
"...........      ...............................                  ............      ............",
"...........      ...............................                  ............      ............",
"...........      ...............................                  ............      ............",
"...........      ...............................                  ............      ............",
"...........      ...............................                  ............      ............",
"...........      ...............................                  ............      ............",
"...........      ...............................                  ............      ............",
"...........      ...............................                  ............      ............",
"...........      ...............................                  ............      ............",
"...........      ...............................                  ............      ............",
"...........      ...............................                  ............      ............",
"...........      ...............................                  ............      ............",
"...........      ...............................                  ............      ............",
"...........      ...............................                  ............      ............",
"...........      ...............................                  ............      ............",
"...........      ...............................                  ............      ............",
"...........      ...............................                  ............      ............",
"...........      ...............................                  ............      ............",
"...........      ...............................                  ............      ............",
"...........      ...............................                  ............      ............",
"...........      ...............................                  ............      ............",
"...........      ...............................                  ............      ............",
"...........       .............................                   ............      ............",
"...........                                                       ............      ............",
"...........                                                       ............      ............",
"...........                                                       ............      ............",
"...........                                                       ............      ............",
"...........                                                       ............      ............",
"...........                                                       ............      ............",
"................................................................................................",
"................................................................................................",
"................................................................................................"
};
