/* XPM */
static const char *reset[] = {
/* columns rows colors chars-per-pixel */
"45 48 4 1 ",
"  c #7E7E7E",
". c gray50",
"X c #808080",
"o c None",
/* pixels */
"oooooooooooooooooo.X.X.X.XXoooooooooooooooooo",
"oooooooooooooooX.............Xooooooooooooooo",
"ooooooooooooX..................XXoooooooooooo",
"ooooooooooo......................Xooooooooooo",
"ooooooooo..........................Xooooooooo",
"ooooooooX............................oooooooo",
"ooooooo...........Xooooooo...........Xooooooo",
"ooooooX........Xooooooooooooo.X.......Xoooooo",
"ooooo.........oooooooooooooooooX.......Xooooo",
"oooo........oooooooooooooooooooooX.......oooo",
"ooo.......XoooooooooooooooooooooooX......Xooo",
"ooo......XoooooooooooooooooooooooooX.....Xooo",
"oo.......ooooooooooooooooooooooooooo......Xoo",
"ooX.....Xooooooooooooooooooooooooooo......Xoo",
"oX......oooooooooooooooooooooooooooooX......o",
"o.......oooooooooooooooooooooooooooooX......o",
"o......ooooooooooooooooooooooooooooooo......o",
"o.....XoooooooooooooooooooooooooooooooX.....o",
"X......oooooooooooooooooooooooooooooooX.....X",
"X.....ooooooooooooooooooooooooooooooooo.....X",
"......ooooooooooooooooooooooooooooooooo.....X",
"X.....ooooooooooooooooooooooooooooooooo.....X",
"......ooooooooooooooooooooooooooooooooo.....X",
"X.....ooooooooooooooooooooooooooooooooo......",
"......ooooooooooooooooooooooooooooooooo......",
"......ooooooooooooooooooooooooooooooooo.....X",
"......XoooooooooooooooooooooooooooooooX.....X",
"o......oooooooooooooooooooooooooooooooX.....o",
"o......ooooooooooooooooooooooooooooooo......o",
"o.......ooooooooooooooooooooooooooooo......Xo",
"oo......oooooooooooooooooX...ooooooooX.....oo",
"ooX.....XoooooooooooooooX....Xoooooo......Xoo",
"ooX......ooooooooooooooo.....Xoooooo......Xoo",
"oooX.....Xoooooooooooooo......ooooo......Xooo",
"ooo.......Xooooooooooooo......oooo.......oooo",
"oooo.......Xoooooooooooo......ooo........oooo",
"oooooX.......Xoooooooooo......o.........ooooo",
"oooooo........Xooooooooo..............Xoooooo",
"ooooooo........Xoooooooo..............ooooooo",
"oooooooo.......Xoooooooo............Xoooooooo",
"ooooooooo......ooooooooo............ooooooooo",
"oooooooooo.X..Xooooooooo.........Xooooooooooo",
"oooooooooooooooooooooooo................Xoooo",
"oooooooooooooooooooooooo..................ooo",
"oooooooooooooooooooooooo.................Xooo",
"oooooooooooooooooooooooo.................Xooo",
"oooooooooooooooooooooooo..................ooo",
"oooooooooooooooooooooooo.................oooo"
};
