/* XPM */
static const char *reset[] = {
/* columns rows colors chars-per-pixel */
"90 96 2 1 ",
"  c gray",
". c None",
/* pixels */
"..........                                ................................................",
"........                                  ................................................",
".......                                   ................................................",
"......                                    ................................................",
"......                                    ................................................",
"......                                    ................................................",
"......                                    ................................................",
"......                                    ................................................",
".......                                   ................................................",
".......                                   ................................................",
"........                                  ................................................",
"..........                                .....................   ........................",
"......................                    ...................       ......................",
"....................                      ..................          ....................",
"...................                       .................            ...................",
".................                         .................              .................",
"................                          .................               ................",
"...............                           .................                ...............",
"..............                            .................                 ..............",
".............                             .................                  .............",
"............                              ..................                  ............",
"...........                               ..................                   ...........",
"..........                  ..            ....................                  ..........",
".........                  ...            .....................                  .........",
".........                .....            .......................                .........",
"........                ......            ........................                ........",
".......                .......            .........................                .......",
".......               ........            ..........................               .......",
"......               .........            ...........................               ......",
".....               ..........            ............................              ......",
".....              ...........            .............................              .....",
"....              ............            ..............................              ....",
"....              .............           ..............................              ....",
"....             ..............          ................................             ....",
"...             ................        ..................................             ...",
"...             ..................    ....................................             ...",
"..             ............................................................             ..",
"..             ............................................................             ..",
"..            ..............................................................            ..",
"..            ..............................................................            ..",
".             ..............................................................             .",
".            ................................................................            .",
".            ................................................................            .",
".            ................................................................            .",
"             ................................................................             ",
"            ..................................................................            ",
"            ..................................................................            ",
"            ..................................................................            ",
"            ..................................................................            ",
"            ..................................................................            ",
"            ..................................................................            ",
"            ..................................................................            ",
"            ..................................................................            ",
"            ..................................................................            ",
"            ..................................................................            ",
"            ..................................................................            ",
"            ..................................................................            ",
"             ................................................................            .",
".            ................................................................            .",
".            ................................................................            .",
".            ................................................................            .",
".             ..............................................................             .",
".             ..............................................................            ..",
"..            ..............................................................            ..",
"..             ............................................................             ..",
"..             ............................................................             ..",
"...             ..........................................................             ...",
"...             ..........................................................             ...",
"....             ........................................................             ....",
"....              ......................................................              ....",
"....              ......................................................              ....",
".....              ....................................................              .....",
".....               ..................................................               .....",
"......               ................................................               ......",
".......               ..............................................               .......",
".......                ............................................                .......",
"........                ..........................................                ........",
".........                ........................................                .........",
".........                  ....................................                  .........",
"..........                  ..................................                  ..........",
"...........                   ..............................                   ...........",
"............                    ..........................                    ............",
".............                      ....................                      .............",
"..............                         ............                         ..............",
"...............                                                            ...............",
"................                                                          ................",
".................                                                        .................",
"...................                                                    ...................",
"....................                                                  ....................",
"......................                                              ......................",
".......................                                            .......................",
"..........................                                       .........................",
"............................                                  ............................",
"..............................                              ..............................",
"..................................                      ..................................",
".......................................            ......................................."
};
