/* XPM */
static const char *trash[] = {
/* columns rows colors chars-per-pixel */
"96 96 2 1 ",
"  c #808080",
". c None",
/* pixels */
"..............................................         .........................................",
"........................................                     ...................................",
".....................................                           ................................",
"....................................                             ...............................",
"....................................                             ...............................",
"....................................                             ...............................",
"....................................          .........          ...............................",
"....................................      .................      ...............................",
"....................................      .................      ...............................",
"....................................      .................      ...............................",
"....................................      .................      ...............................",
"....................................      ....         ....      ...............................",
"....................................                             ...............................",
".................................                                   ............................",
".............................                                           ........................",
"..........................                                                 .....................",
".......................                                                       ..................",
".....................                                                           ................",
"...................                                                               ..............",
"...................                                                               ..............",
"...................                                                               ..............",
"...................                                                               ..............",
"...................                                                               ..............",
"...................                                                               ..............",
".............                                                                          .........",
".............                                                                          .........",
".............                                                                          .........",
".............                                                                          .........",
".............                                                                          .........",
".............                                                                          .........",
"...................      .......................................................................",
"...................      .......................................................................",
"...................      .......................................................................",
"...................      .......................................................................",
"...................      .......................................................................",
"...................      .......................................................................",
"...................      ...........      ......     ......      ...........      ..............",
"...................      ...........      ......     ......      ...........      ..............",
"...................      ...........      ......     ......      ...........      ..............",
"...................      ...........      ......     ......      ...........      ..............",
"...................      ...........      ......     ......      ...........      ..............",
"...................      ...........      ......     ......      ...........      ..............",
"...................      ...........      ......     ......      ...........      ..............",
"...................      ...........      ......     ......      ...........      ..............",
"...................      ...........      ......     ......      ...........      ..............",
"...................      ...........      ......     ......      ...........      ..............",
"...................      ...........      ......     ......      ...........      ..............",
"...................      ...........      ......     ......      ...........      ..............",
"...................      ...........      ......     ......      ...........      ..............",
"...................      ...........      ......     ......      ...........      ..............",
"...................      ...........      ......     ......      ...........      ..............",
"...................      ...........      ......     ......      ...........      ..............",
"...................      ...........      ......     ......      ...........      ..............",
"...................      ...........      ......     ......      ...........      ..............",
"...................      ...........      ......     ......      ...........      ..............",
"...................      ...........      ......     ......      ...........      ..............",
"...................      ...........      ......     ......      ...........      ..............",
"...................      ...........      ......     ......      ...........      ..............",
"...................      ...........      ......     ......      ...........      ..............",
"...................      ...........      ......     ......      ...........      ..............",
"...................      ...........      ......     ......      ...........      ..............",
"...................      ...........      ......     ......      ...........      ..............",
"...................      ...........      ......     ......      ...........      ..............",
"...................      ...........      ......     ......      ...........      ..............",
"...................      ...........      ......     ......      ...........      ..............",
"...................      ...........      ......     ......      ...........      ..............",
"...................      ...........      ......     ......      ...........      ..............",
"...................      ...........      ......     ......      ...........      ..............",
"...................      ...........      ......     ......      ...........      ..............",
"...................      ...........      ......     ......      ...........      ..............",
"...................      ...........      ......     ......      ...........      ..............",
"...................      ...........      ......     ......      ...........      ..............",
"...................      ...................................................      ..............",
"...................      ...................................................      ..............",
"...................      ...................................................      ..............",
"...................      ...................................................      ..............",
"...................      ...................................................      ..............",
"...................      ...................................................      ..............",
"...................      ...................................................      ..............",
"...................      ...................................................      ..............",
"...................      ...................................................      ..............",
"...................      ...................................................      ..............",
"...................      ...................................................      ..............",
"...................      ...................................................      ..............",
"...................      ...................................................      ..............",
"...................      ...................................................      ..............",
"...................      ...................................................      ..............",
"...................      ...................................................      ..............",
"...................      ..................................................      ...............",
"....................        .............................................        ...............",
"....................                                                             ...............",
"....................                                                            ................",
".....................                                                           ................",
"......................                                                         .................",
"........................                                                     ...................",
"...........................                                               ......................"
};
