/* XPM */
static const char *world[] = {
/* columns rows colors chars-per-pixel */
"96 96 2 1 ",
"  c white",
". c None",
/* pixels */
".........................................             ..........................................",
"....................................                        ....................................",
".................................                              .................................",
"..............................                                    ..............................",
"............................                                        ............................",
"..........................                                            ..........................",
"........................                  .....                         ........................",
"......................               ..........         ...              .......................",
".....................             ..... .......        .......             .....................",
"...................            .....    ........      ..........            ....................",
"..................            ...        .........................            ..................",
".................                        .........................             .................",
"................                          ........................              ................",
"...............                           ........................               ...............",
"..............                            ..........................              ..............",
".............                           .............................              .............",
"............                           ..............................               ............",
"...........                          ..............................                  ...........",
"..........                         ...............................                   ...........",
".........                         ................................        ..          ..........",
".........                       ..................................      .....          .........",
"........                       ....................................  ..........         ........",
".......                       ...................................................       ........",
".......                      .....................................................       .......",
"......                       .....................................          ......       .......",
"......                      .....................................            ......       ......",
".....                      ......................................             ....        ......",
".....                     ......................................                           .....",
"....              ...    ......................................                            .....",
"....            ......   ......................................                             ....",
"...            ...............................................                              ....",
"...             ..............................................                               ...",
"...             .............................................                                ...",
"..               ... .......................................                                 ...",
"..                   ........................................                                 ..",
"..      ...           .......................................                                 ..",
".       .......        .......................................                                ..",
".      .........       .......................................                                ..",
".      ...........      ......................................                                 .",
".      ............      ...     ..............................                                .",
".      .............     ..        ............................                                .",
"      ................               ...........................                               .",
"      .................                .........................                               .",
"      ..................                 .........................                             .",
"      ..................                  ...........................                          .",
"      ..................                   ..............................                      .",
"      ..................                    ................................                   .",
"      ..................                     ................................                  .",
"      ..................                      ...............................                  .",
"      ..................                       ..............................                  .",
"      ..................                        .............................                  .",
"      ..................                         ............................                  .",
"      ..................                          ............................                 .",
"      ...................                          ...........................                 .",
".      ...................                        ............................                 .",
".      ...................                        ............................                 .",
".      ....................                      .............................                 .",
".      .....................                     .............................                ..",
".      .....................                    ...............................               ..",
".       .....................                   ...............................               ..",
"..      .....................                  ................................               ..",
"..      ......................                 ................................              ...",
"..       .....................                ..................................             ...",
"...      .....................                ..................................             ...",
"...      .....................               ...................................            ....",
"...       ....................              .....................................           ....",
"....      ....................             ......................................           ....",
"....       ...................             ......................................          .....",
".....      ....................           ........................................         .....",
".....       ...................          ..........................................       ......",
"......       ..................          ..........................................       ......",
"......       ..................         ..........................................       .......",
".......       .................        ..........................................        .......",
"........       ................       ...........................................       ........",
"........        ................      ..........................................       .........",
".........       ................     ..........................................        .........",
"..........       ...............     .........................................        ..........",
"..........        ..............     ........................................        ...........",
"...........        .............     .......................................        ............",
"............         ...........     ......................................        .............",
".............         ............    ....................................        ..............",
"..............         ............   ..................................          ..............",
"...............         ............. .................................         ................",
"................          ...........................................          .................",
".................           ........................................          ..................",
"..................            ....................................           ...................",
"....................            ................................            ....................",
".....................              ..........................             ......................",
".......................               ...................                .......................",
"........................                     ......                    .........................",
"..........................                                           ...........................",
"............................                                       .............................",
"...............................                                  ...............................",
"..................................                            ..................................",
"......................................                    ......................................",
".............................................     .............................................."
};
