<?xml version="1.0" encoding="UTF-8" standalone="no"?>
<!-- Created with Inkscape (http://www.inkscape.org/) -->

<svg
   width="206.99535"
   height="176.43138"
   viewBox="0 0 54.767518 46.6808"
   version="1.1"
   id="svg1395"
   inkscape:version="1.2.2 (b0a8486541, 2022-12-01)"
   sodipodi:docname="fidolio_tall.svg"
   inkscape:export-filename="fidolio_tall.png"
   inkscape:export-xdpi="96"
   inkscape:export-ydpi="96"
   xmlns:inkscape="http://www.inkscape.org/namespaces/inkscape"
   xmlns:sodipodi="http://sodipodi.sourceforge.net/DTD/sodipodi-0.dtd"
   xmlns="http://www.w3.org/2000/svg"
   xmlns:svg="http://www.w3.org/2000/svg">
  <sodipodi:namedview
     id="namedview1397"
     pagecolor="#ffffff"
     bordercolor="#000000"
     borderopacity="0.25"
     inkscape:showpageshadow="2"
     inkscape:pageopacity="0"
     inkscape:pagecheckerboard="0"
     inkscape:deskcolor="#d1d1d1"
     inkscape:document-units="mm"
     showgrid="false"
     inkscape:zoom="3.0990197"
     inkscape:cx="94.86871"
     inkscape:cy="102.93578"
     inkscape:window-width="1920"
     inkscape:window-height="1002"
     inkscape:window-x="0"
     inkscape:window-y="0"
     inkscape:window-maximized="1"
     inkscape:current-layer="layer1"
     showguides="false" />
  <defs
     id="defs1392" />
  <g
     inkscape:label="Layer 1"
     inkscape:groupmode="layer"
     id="layer1"
     transform="translate(-2.228647,-1.6068726)">
    <g
       id="g2308"
       transform="translate(-0.15455587,-1.8852857)">
      <path
         style="color:#000000;fill:#ffffff;fill-opacity:0;stroke:none;stroke-width:1.07692;stroke-linecap:round;-inkscape-stroke:none"
         d="m 22.368452,4.0401719 h 14.79808 c 2.638425,0 4.7625,2.124075 4.7625,4.7625 V 23.600749 c 0,2.638425 -2.124075,4.7625 -4.7625,4.7625 h -14.79808 c -2.638425,0 -4.7625,-2.124075 -4.7625,-4.7625 V 8.8026719 c 0,-2.638425 2.124075,-4.7625 4.7625,-4.7625 z"
         id="pathBackground" />
      <path
         id="pathF"
         style="font-style:italic;font-weight:bold;font-size:22.1733px;font-family:JansonText;-inkscape-font-specification:'JansonText Bold Italic';fill:#7c7c7c;fill-opacity:1;stroke:#000000;stroke-width:0;stroke-linecap:square;stroke-miterlimit:56.3;stroke-dasharray:none"
         d="m 31.542103,3.4978059 c -2.076886,0.225736 -3.954016,1.499392 -5.072277,3.246506 -1.208384,1.556132 -0.812876,3.6636301 -0.287657,5.4015941 0.09883,0.363101 0.184903,0.824598 -0.150941,1.069575 -0.150189,0.109555 -1.864048,1.02057 -2.130657,1.159335 0.122462,0.254548 0.652323,1.492738 0.760233,1.723708 0.171519,-0.09283 2.299926,-1.1369 2.490674,-1.235484 0.83504,1.974349 2.907816,6.7328 3.962806,9.881961 0.08585,0.358177 0.283511,0.834721 0.103601,1.166867 -1.265852,0.551339 -2.117671,-1.544234 -3.680569,-0.01542 -0.726603,0.757738 -0.02182,2.447146 0.917535,2.79823 1.345255,0.532258 2.742088,-0.377887 3.788094,-1.157991 1.648421,-1.220155 2.220722,-3.434125 1.799296,-5.381455 -0.350356,-1.903154 -0.864828,-3.039835 -1.221209,-4.000069 -0.301298,-0.766695 -2.06961,-4.90263 -2.151363,-5.166938 0.939972,-0.501275 2.043925,-1.008426 2.983763,-1.509951 -0.260513,-0.582867 -0.524905,-1.163987 -0.78711,-1.746093 -0.945041,0.476444 -1.991089,0.961893 -2.936982,1.436643 -0.528566,-1.393942 -1.274963,-2.8810051 -0.92044,-4.4151591 0.129258,-0.573822 0.676661,-0.514288 1.091761,-0.302992 1.025773,0.465558 2.529772,0.571161 3.171911,-0.552477 0.567362,-0.708585 0.299512,-1.810959 -0.537109,-2.171875 -0.363878,-0.193887 -0.785376,-0.254336 -1.19336,-0.228515 z"
         sodipodi:nodetypes="cccsccccccccccccccccccc" />
      <path
         style="color:#000000;fill:#7c7c7c;fill-opacity:1;stroke:none;stroke-linecap:round;-inkscape-stroke:none"
         d="m 22.367549,3.5019569 c -2.927415,0 -5.300781,2.373366 -5.300782,5.300781 V 23.601566 c 0,2.927415 2.373367,5.300781 5.300782,5.300781 h 14.798828 c 2.927415,0 5.300781,-2.373366 5.300781,-5.300781 V 8.8027379 c 0,-2.927415 -2.373366,-5.300781 -5.300781,-5.300781 z m 0,1.076172 h 14.798828 c 2.349429,0 4.224609,1.875179 4.224609,4.224609 V 23.601566 c 0,2.34943 -1.87518,4.222656 -4.224609,4.222656 H 22.367549 c -2.34943,0 -4.222657,-1.873226 -4.222657,-4.222656 V 8.8027379 c 0,-2.34943 1.873227,-4.224609 4.222657,-4.224609 z"
         id="pathBorder" />
    </g>
    <g
       aria-label="fidolio"
       id="text1629"
       style="font-style:italic;font-weight:bold;font-size:22.5778px;font-family:JansonText;-inkscape-font-specification:'JansonText Bold Italic';fill:#7c7c7c;fill-opacity:1;stroke:none;stroke-width:0;stroke-linecap:square;stroke-miterlimit:56.3"
       transform="translate(-30.182247,23.22273)">
      <path
         d="m 36.181387,16.033825 c 0.2032,0 0.654756,0.02258 1.354668,0.06773 0.677334,0.04516 1.038579,0.04516 1.061156,0.04516 0.406401,0 0.609601,-0.180623 0.609601,-0.564446 0,-0.316089 -0.09031,-0.474133 -0.225778,-0.474133 h -2.799647 v -2.912537 c 0,-2.167468 0.496711,-3.2737807 1.512712,-3.2737807 0.225778,0 0.564445,0.1806224 0.993424,0.5192894 0.4064,0.3612448 0.835378,0.5192894 1.241779,0.5192894 0.699911,0 1.061156,-0.3612448 1.061156,-1.1063122 0,-0.6321785 -0.474134,-0.9708455 -1.422401,-0.9708455 -0.451556,0 -0.92569,0.067733 -1.377246,0.1806224 -1.309513,0.3612448 -2.25778,1.0160011 -2.844803,1.9642692 -0.587023,0.948267 -0.948268,2.302935 -1.061157,4.064004 -0.04516,0.496711 -0.112889,0.790223 -0.248355,0.925689 -0.135467,0.135467 -0.451556,0.248356 -0.92569,0.338667 -0.474134,0.112889 -0.699912,0.248356 -0.699912,0.383823 0,0.2032 0.09031,0.293512 0.270934,0.293512 h 1.241779 c 0.270933,0 0.428978,0.248355 0.428978,0.722489 v 6.299207 c 0,0.338667 -0.04516,0.587022 -0.09031,0.722489 -0.112889,0.293512 -0.474134,0.428978 -1.061157,0.428978 -0.316089,0 -0.474134,0.112889 -0.474134,0.293512 0,0.2032 0.06773,0.293511 0.2032,0.293511 -0.06773,0 0.135467,0 0.587023,-0.02258 0.451556,0 1.061157,-0.02258 1.806224,-0.02258 0.361245,0 0.812801,0.02258 1.354668,0.02258 0.541867,0.02258 0.948268,0.02258 1.219201,0.02258 0.225779,0 0.338668,-0.09031 0.338668,-0.316089 0,-0.112889 -0.06773,-0.180622 -0.158045,-0.225778 -0.09031,-0.02258 -0.361245,-0.04516 -0.767645,-0.04516 -0.51929,0 -0.857957,-0.112889 -0.993424,-0.361244 -0.09031,-0.135467 -0.135466,-0.474134 -0.135466,-0.970846 z"
         style="font-style:normal;font-weight:normal;-inkscape-font-specification:JansonText;fill:#7c7c7c;fill-opacity:1;stroke:none"
         id="path322" />
      <path
         d="m 43.489895,17.772315 c 0,-0.857956 0,-1.580446 0.02258,-2.122313 0,-0.383823 0.02258,-0.677334 0.04516,-0.880534 0.02258,-0.180623 0.04516,-0.270934 0.04516,-0.248356 0,-0.158045 -0.04516,-0.248356 -0.135467,-0.248356 0,0 -0.225778,0.135467 -0.72249,0.361245 -0.587023,0.293511 -1.399824,0.541867 -2.438402,0.745067 -0.135467,0.04516 -0.180623,0.135467 -0.180623,0.316089 0,0.180623 0.06773,0.270934 0.2032,0.270934 0.496712,0.04516 0.835379,0.180623 1.038579,0.361245 0.180623,0.2032 0.293512,0.541867 0.293512,0.993423 v 3.093159 c 0,1.964269 -0.04516,3.048003 -0.135467,3.251203 -0.158045,0.361245 -0.474134,0.541867 -0.92569,0.541867 -0.4064,0 -0.654756,0.02258 -0.745067,0.06773 -0.09031,0.04516 -0.112889,0.135467 -0.112889,0.270933 0,0.180623 0.04516,0.248356 0.180622,0.248356 -0.04516,0 0.248356,0 0.857956,-0.02258 0.587023,0 1.332091,-0.02258 2.190047,-0.02258 0.587023,0 1.083735,0.02258 1.444979,0.02258 0.361245,0.02258 0.496712,0.02258 0.428979,0.02258 0.135466,0 0.225778,-0.09031 0.225778,-0.293511 0,-0.135467 -0.04516,-0.2032 -0.09031,-0.248356 -0.04516,-0.02258 -0.2032,-0.04516 -0.451556,-0.04516 -0.496711,0 -0.790223,-0.09031 -0.880534,-0.270933 -0.112889,-0.180623 -0.158044,-0.609601 -0.158044,-1.286935 z m -0.92569,-6.637873 c 0.316089,0 0.6096,-0.112889 0.835378,-0.361245 0.225778,-0.225778 0.338667,-0.519289 0.338667,-0.8353787 0,-0.3160892 -0.112889,-0.5870228 -0.338667,-0.8353786 -0.225778,-0.225778 -0.519289,-0.3612448 -0.835378,-0.3612448 -0.338667,0 -0.609601,0.1354668 -0.835379,0.3612448 -0.225778,0.2483558 -0.338667,0.5192894 -0.338667,0.8353786 0,0.3160897 0.112889,0.6096007 0.338667,0.8353787 0.225778,0.248356 0.496712,0.361245 0.835379,0.361245 z"
         style="letter-spacing:0px;fill:#7c7c7c;fill-opacity:1;stroke:none"
         id="path324" />
      <path
         d="m 52.433724,22.310453 c 0,0.677334 -0.270933,1.196624 -0.767645,1.535291 -0.406401,0.293511 -0.903112,0.428978 -1.444979,0.428978 -2.122314,0 -3.18347,-1.64818 -3.18347,-4.944539 0,-0.993423 0.180622,-1.851379 0.587023,-2.619024 0.541867,-1.038579 1.377245,-1.557869 2.506135,-1.557869 1.535291,0 2.302936,0.632179 2.302936,1.873958 z m 0,-7.247474 c -0.812801,-0.316089 -1.580446,-0.496712 -2.348091,-0.496712 -1.286935,0 -2.415825,0.496712 -3.364092,1.44498 -1.106313,1.083734 -1.64818,2.483558 -1.64818,4.222048 0,1.399824 0.361245,2.528714 1.12889,3.409248 0.790223,0.948268 1.873958,1.422402 3.251203,1.422402 1.106313,0 2.144892,-0.383823 3.093159,-1.196624 0,0.135467 -0.02258,0.31609 -0.04516,0.51929 -0.02258,0.2032 -0.02258,0.361245 -0.02258,0.451556 0,0.158044 0.06773,0.225778 0.248356,0.225778 -0.135467,0 0.767645,-0.2032 2.754491,-0.609601 0.09031,0 0.158045,-0.112889 0.158045,-0.338667 0,-0.158044 -0.06773,-0.248356 -0.180623,-0.248356 -0.541867,0 -0.903112,-0.09031 -1.038578,-0.293511 -0.112889,-0.112889 -0.158045,-0.361245 -0.158045,-0.745067 V 11.202175 c 0,-0.857956 0,-1.5804459 0.02258,-2.1223131 0,-0.3838226 0.02258,-0.6773341 0.04516,-0.8805343 0.02258,-0.1806224 0.04516,-0.2709336 0.04516,-0.2483558 0,-0.1580446 -0.04516,-0.2483558 -0.135467,-0.2483558 -0.02258,0 -0.338667,0.1354668 -0.970845,0.3612448 -0.72249,0.2935114 -1.444979,0.4967117 -2.167469,0.6096007 -0.135467,0.022578 -0.180623,0.1354668 -0.180623,0.3160892 0,0.1806224 0.06773,0.2709336 0.203201,0.2709336 0.587023,0.067733 0.970845,0.225778 1.106312,0.4741338 0.135467,0.2483558 0.2032,0.8805339 0.2032,1.8739579 z"
         style="font-style:normal;font-weight:normal;-inkscape-font-specification:JansonText;fill:#7c7c7c;fill-opacity:1;stroke:none"
         id="path326" />
      <path
         d="m 63.985975,19.826895 c 0,3.115737 -1.038579,4.651027 -3.115737,4.651027 -2.077158,0 -3.093159,-1.53529 -3.093159,-4.651027 0,-1.264357 0.225778,-2.325513 0.677334,-3.160892 0.51929,-0.993423 1.332091,-1.490135 2.415825,-1.490135 1.083734,0 1.896535,0.496712 2.438403,1.490135 0.451556,0.835379 0.677334,1.896535 0.677334,3.160892 z m 2.144891,0 c 0,-1.512713 -0.496712,-2.754492 -1.490135,-3.747915 -0.993423,-0.993423 -2.25778,-1.490135 -3.770493,-1.490135 -1.512713,0 -2.754492,0.51929 -3.747915,1.512713 -0.993423,0.993423 -1.490135,2.235202 -1.490135,3.725337 0,1.512713 0.474134,2.754492 1.467557,3.747915 0.970846,0.993423 2.235203,1.490135 3.770493,1.490135 1.580446,0 2.844803,-0.474134 3.815648,-1.422402 0.948268,-0.948267 1.44498,-2.235202 1.44498,-3.815648 z"
         style="font-style:normal;font-weight:normal;-inkscape-font-specification:JansonText;fill:#7c7c7c;fill-opacity:1;stroke:none"
         id="path328" />
      <path
         d="m 69.485108,11.202175 c 0,-0.857956 0,-1.5804459 0.02258,-2.1223131 0,-0.3838226 0.02258,-0.6773341 0.04515,-0.8805343 0.02258,-0.1806224 0.04516,-0.2709336 0.04516,-0.2483558 0,-0.1580446 -0.04516,-0.2483558 -0.135467,-0.2483558 -0.02258,0 -0.338667,0.1354668 -0.970845,0.3612448 -0.72249,0.2935114 -1.444979,0.4967117 -2.167469,0.6096007 -0.135467,0.022578 -0.180622,0.1354668 -0.180622,0.3160892 0,0.1806224 0.06773,0.2709336 0.2032,0.2709336 0.587023,0.067733 0.970845,0.225778 1.106312,0.4741338 0.135467,0.2483558 0.2032,0.8805339 0.2032,1.8739579 v 7.90223 c 0,2.573869 -0.04515,3.951115 -0.135467,4.154315 -0.158044,0.361245 -0.428978,0.541867 -0.835378,0.541867 -0.406401,0 -0.632179,0.02258 -0.72249,0.06773 -0.09031,0.04516 -0.112889,0.135467 -0.112889,0.270933 0,0.180623 0.04516,0.248356 0.180623,0.248356 -0.09031,0 0.180622,0 0.767645,-0.02258 0.587023,0 1.309512,-0.02258 2.167469,-0.02258 0.632178,0 1.151467,0.02258 1.53529,0.02258 0.383823,0.02258 0.541867,0.02258 0.451556,0.02258 0.135467,0 0.225778,-0.09031 0.225778,-0.293511 0,-0.135467 -0.04516,-0.2032 -0.112889,-0.248356 -0.06773,-0.02258 -0.248356,-0.04516 -0.541867,-0.04516 -0.496712,0 -0.790223,-0.09031 -0.880534,-0.270933 -0.112889,-0.180623 -0.158045,-0.609601 -0.158045,-1.286935 z"
         style="font-style:normal;font-weight:normal;-inkscape-font-specification:JansonText;fill:#7c7c7c;fill-opacity:1;stroke:none"
         id="path330" />
      <path
         d="m 75.281735,17.772315 c 0,-0.857956 0,-1.580446 0.02258,-2.122313 0,-0.383823 0.02258,-0.677334 0.04516,-0.880534 0.02258,-0.180623 0.04516,-0.270934 0.04516,-0.248356 0,-0.158045 -0.04516,-0.248356 -0.135467,-0.248356 0,0 -0.225778,0.135467 -0.722489,0.361245 -0.587023,0.293511 -1.399824,0.541867 -2.438403,0.745067 -0.135467,0.04516 -0.180622,0.135467 -0.180622,0.316089 0,0.180623 0.06773,0.270934 0.2032,0.270934 0.496712,0.04516 0.835379,0.180623 1.038579,0.361245 0.180622,0.2032 0.293511,0.541867 0.293511,0.993423 v 3.093159 c 0,1.964269 -0.04516,3.048003 -0.135467,3.251203 -0.158044,0.361245 -0.474133,0.541867 -0.925689,0.541867 -0.406401,0 -0.654757,0.02258 -0.745068,0.06773 -0.09031,0.04516 -0.112889,0.135467 -0.112889,0.270933 0,0.180623 0.04516,0.248356 0.180623,0.248356 -0.04516,0 0.248355,0 0.857956,-0.02258 0.587023,0 1.33209,-0.02258 2.190047,-0.02258 0.587022,0 1.083734,0.02258 1.444979,0.02258 0.361245,0.02258 0.496712,0.02258 0.428978,0.02258 0.135467,0 0.225778,-0.09031 0.225778,-0.293511 0,-0.135467 -0.04516,-0.2032 -0.09031,-0.248356 -0.04516,-0.02258 -0.2032,-0.04516 -0.451556,-0.04516 -0.496712,0 -0.790223,-0.09031 -0.880534,-0.270933 -0.112889,-0.180623 -0.158045,-0.609601 -0.158045,-1.286935 z m -0.92569,-6.637873 c 0.316089,0 0.609601,-0.112889 0.835379,-0.361245 0.225778,-0.225778 0.338667,-0.519289 0.338667,-0.8353787 0,-0.3160892 -0.112889,-0.5870228 -0.338667,-0.8353786 -0.225778,-0.225778 -0.51929,-0.3612448 -0.835379,-0.3612448 -0.338667,0 -0.6096,0.1354668 -0.835378,0.3612448 C 73.294889,9.3507955 73.182,9.6217291 73.182,9.9378183 c 0,0.3160897 0.112889,0.6096007 0.338667,0.8353787 0.225778,0.248356 0.496711,0.361245 0.835378,0.361245 z"
         style="font-style:normal;font-weight:normal;-inkscape-font-specification:JansonText;fill:#7c7c7c;fill-opacity:1;stroke:none"
         id="path332" />
      <path
         d="m 85.033521,19.826895 c 0,3.115737 -1.038579,4.651027 -3.115737,4.651027 -2.077157,0 -3.093158,-1.53529 -3.093158,-4.651027 0,-1.264357 0.225778,-2.325513 0.677334,-3.160892 0.519289,-0.993423 1.33209,-1.490135 2.415824,-1.490135 1.083735,0 1.896536,0.496712 2.438403,1.490135 0.451556,0.835379 0.677334,1.896535 0.677334,3.160892 z m 2.144891,0 c 0,-1.512713 -0.496712,-2.754492 -1.490135,-3.747915 -0.993423,-0.993423 -2.25778,-1.490135 -3.770493,-1.490135 -1.512712,0 -2.754491,0.51929 -3.747915,1.512713 -0.993423,0.993423 -1.490134,2.235202 -1.490134,3.725337 0,1.512713 0.474133,2.754492 1.467557,3.747915 0.970845,0.993423 2.235202,1.490135 3.770492,1.490135 1.580446,0 2.844803,-0.474134 3.815649,-1.422402 0.948267,-0.948267 1.444979,-2.235202 1.444979,-3.815648 z"
         style="font-style:normal;font-weight:normal;-inkscape-font-specification:JansonText;fill:#7c7c7c;fill-opacity:1;stroke:none"
         id="path334" />
    </g>
  </g>
</svg>
