<?xml version="1.0" encoding="UTF-8" standalone="no"?>
<svg
   version="1.1"
   viewBox="0 0 96 96"
   id="svg3155"
   sodipodi:docname="explore2-symbolic.svg"
   inkscape:export-filename="explore2-symbolic.png"
   inkscape:export-xdpi="96"
   inkscape:export-ydpi="96"
   width="96"
   height="96"
   inkscape:version="1.2.2 (b0a8486541, 2022-12-01)"
   xmlns:inkscape="http://www.inkscape.org/namespaces/inkscape"
   xmlns:sodipodi="http://sodipodi.sourceforge.net/DTD/sodipodi-0.dtd"
   xmlns="http://www.w3.org/2000/svg"
   xmlns:svg="http://www.w3.org/2000/svg">
  <defs
     id="defs3159" />
  <sodipodi:namedview
     id="namedview3157"
     pagecolor="#ffffff"
     bordercolor="#000000"
     borderopacity="0.25"
     inkscape:showpageshadow="2"
     inkscape:pageopacity="0.0"
     inkscape:pagecheckerboard="true"
     inkscape:deskcolor="#d1d1d1"
     showgrid="false"
     inkscape:zoom="8.1458333"
     inkscape:cx="47.938619"
     inkscape:cy="48"
     inkscape:window-width="1920"
     inkscape:window-height="1002"
     inkscape:window-x="0"
     inkscape:window-y="0"
     inkscape:window-maximized="1"
     inkscape:current-layer="svg3155" />
  <g
     transform="matrix(5.9945253,0,0,5.9962336,-3908.4305,-1798.8701)"
     fill="#808080"
     id="g3153">
    <path
       d="m 660,300 a 8,8 0 0 0 -8,8 8,8 0 0 0 8,8 8,8 0 0 0 8,-8 8,8 0 0 0 -8,-8 z m 0,1 a 7,7 0 0 1 7,7 7,7 0 0 1 -7,7 7,7 0 0 1 -7,-7 7,7 0 0 1 7,-7 z m 4.2422,2.7578 c -1.7497,0.63708 -3.7944,1.6748 -4.9141,2.2656 -0.22984,0.11183 -0.44226,0.26324 -0.625,0.44531 -0.84611,0.84612 -0.89827,2.1642 -0.11718,2.9453 0.7811,0.7811 2.0992,0.72899 2.9453,-0.11718 0.15626,-0.1564 0.2909,-0.33284 0.39648,-0.5254 0.58272,-1.1007 1.6632,-3.2252 2.3145,-5.0137 z M 659.9863,307 a 1,1 0 0 1 0.7207,0.29297 1,1 0 0 1 0,1.4141 1,1 0 0 1 -1.4141,0 1,1 0 0 1 0,-1.4141 A 1,1 0 0 1 659.98626,307 Z"
       color="#000000"
       id="path3149" />
    <path
       d="m 661.41,306.59 c -0.78109,-0.78109 -2.0997,-0.72872 -2.9458,0.11739 -0.18207,0.18274 -0.33288,0.3944 -0.44471,0.62424 -0.5908,1.1196 -1.6292,3.1656 -2.2663,4.9152 1.7885,-0.6512 3.9126,-1.732 5.0133,-2.3147 0.19256,-0.10558 0.36979,-0.2401 0.52619,-0.39636 0.84617,-0.84607 0.89849,-2.1647 0.11739,-2.9458 z m -0.70711,0.70711 a 1,1 0 0 1 0,1.4142 1,1 0 0 1 -1.4142,0 1,1 0 0 1 0,-1.4142 1,1 0 0 1 1.4142,0 z"
       color="#000000"
       opacity="0.5"
       id="path3151" />
  </g>
</svg>
