<?xml version="1.0" encoding="UTF-8" standalone="no"?>
<svg
   viewBox="0 0 96 96"
   version="1.1"
   id="svg4"
   sodipodi:docname="explore2-symbolic.svg"
   inkscape:version="1.2.2 (b0a8486541, 2022-12-01)"
   inkscape:export-filename="open-menu-symbolic.png"
   inkscape:export-xdpi="96"
   inkscape:export-ydpi="96"
   width="96"
   height="96"
   xmlns:inkscape="http://www.inkscape.org/namespaces/inkscape"
   xmlns:sodipodi="http://sodipodi.sourceforge.net/DTD/sodipodi-0.dtd"
   xmlns="http://www.w3.org/2000/svg"
   xmlns:svg="http://www.w3.org/2000/svg">
  <defs
     id="defs8" />
  <sodipodi:namedview
     id="namedview6"
     pagecolor="#ffffff"
     bordercolor="#000000"
     borderopacity="0.25"
     inkscape:showpageshadow="true"
     inkscape:pageopacity="0.0"
     inkscape:pagecheckerboard="true"
     inkscape:deskcolor="#d1d1d1"
     showgrid="false"
     showguides="true"
     inkscape:zoom="8.1458333"
     inkscape:cx="47.324808"
     inkscape:cy="48.122762"
     inkscape:window-width="1920"
     inkscape:window-height="1002"
     inkscape:window-x="0"
     inkscape:window-y="0"
     inkscape:window-maximized="1"
     inkscape:current-layer="svg4">
    <sodipodi:guide
       position="48,48"
       orientation="1,0"
       id="guide291"
       inkscape:locked="false" />
    <sodipodi:guide
       position="48,48"
       orientation="0,-1"
       id="guide293"
       inkscape:locked="false" />
    <sodipodi:guide
       position="18,51"
       orientation="1,0"
       id="guide5786"
       inkscape:locked="false" />
    <sodipodi:guide
       position="45,78"
       orientation="0,-1"
       id="guide5788"
       inkscape:locked="false" />
    <sodipodi:guide
       position="51,18"
       orientation="0,-1"
       id="guide5790"
       inkscape:locked="false" />
    <sodipodi:guide
       position="78,48"
       orientation="1,0"
       id="guide5792"
       inkscape:locked="false" />
  </sodipodi:namedview>
  <rect
     style="fill:none;stroke:none;stroke-width:6;stroke-linecap:butt;stroke-linejoin:bevel;stroke-miterlimit:56.3;stroke-dashoffset:10.3582;stroke-opacity:1;paint-order:markers fill stroke;image-rendering:auto"
     id="rect1000"
     width="96"
     height="96"
     x="0"
     y="0"
     inkscape:label="#bounds"
     sodipodi:insensitive="true" />
  <path
     id="path12850"
     style="fill:#808080;stroke-width:6;stroke-dasharray:none"
     d="M 63.857422 32.091797 C 57.297929 34.480841 49.631265 38.372395 45.433594 40.587891 C 44.571942 41.007252 43.776875 41.575051 43.091797 42.257812 C 39.919795 45.430756 39.724097 50.373615 42.652344 53.302734 C 45.580629 56.231853 50.521395 56.036412 53.693359 52.863281 C 54.279167 52.276783 54.783877 51.614676 55.179688 50.892578 C 57.364261 46.764961 61.415747 38.798658 63.857422 32.091797 z M 47.902344 44.25 A 3.7489279 3.7499962 0 0 1 50.603516 45.349609 A 3.7489279 3.7499962 0 0 1 50.603516 50.652344 A 3.7489279 3.7499962 0 0 1 45.302734 50.652344 A 3.7489279 3.7499962 0 0 1 45.302734 45.349609 A 3.7489279 3.7499962 0 0 1 47.902344 44.25 z " />
  <path
     d="m 53.255372,42.69744 c -2.92825,-2.929085 -7.871624,-2.732697 -11.043591,0.440212 -0.682568,0.685274 -1.247944,1.478999 -1.667186,2.340898 -2.214867,4.198495 -6.107754,11.870988 -8.496195,18.431981 6.704957,-2.441998 14.668055,-6.494993 18.7945,-8.680116 0.721893,-0.395925 1.386316,-0.900374 1.972648,-1.486349 3.17223,-3.172759 3.368374,-8.117617 0.440087,-11.046739 z m -2.650904,2.65166 a 3.7489279,3.7499962 0 0 1 0,5.303244 3.7489279,3.7499962 0 0 1 -5.301734,0 3.7489279,3.7499962 0 0 1 0,-5.303244 3.7489279,3.7499962 0 0 1 5.301734,0 z"
     color="#000000"
     opacity="0.5"
     id="path3151"
     style="fill:#808080;stroke-width:6;stroke-dasharray:none" />
  <path
     style="fill:none;stroke:#808080;stroke-width:6;stroke-linecap:round;stroke-miterlimit:56.3;stroke-dasharray:none;stroke-dashoffset:10.3582;paint-order:markers fill stroke"
     id="path12913"
     sodipodi:type="arc"
     sodipodi:cx="48"
     sodipodi:cy="48"
     sodipodi:rx="30"
     sodipodi:ry="30"
     sodipodi:start="6.0127898"
     sodipodi:end="6.0067423"
     sodipodi:arc-type="arc"
     d="M 76.90996,39.986622 A 30,30 0 0 1 56.057077,76.897812 30,30 0 0 1 19.114403,56.100758 30,30 0 0 1 39.85558,19.126683 30,30 0 0 1 76.860971,39.811937"
     sodipodi:open="true" />
</svg>
