<?xml version="1.0" encoding="UTF-8" standalone="no"?>
<!-- Created with Inkscape (http://www.inkscape.org/) -->

<svg
   width="96"
   height="96"
   viewBox="0 0 25.4 25.4"
   version="1.1"
   id="svg5"
   inkscape:version="1.2.2 (b0a8486541, 2022-12-01)"
   sodipodi:docname="pomodoro.svg"
   inkscape:export-filename="western.png"
   inkscape:export-xdpi="96"
   inkscape:export-ydpi="96"
   xmlns:inkscape="http://www.inkscape.org/namespaces/inkscape"
   xmlns:sodipodi="http://sodipodi.sourceforge.net/DTD/sodipodi-0.dtd"
   xmlns="http://www.w3.org/2000/svg"
   xmlns:svg="http://www.w3.org/2000/svg">
  <sodipodi:namedview
     id="namedview7"
     pagecolor="#ffffff"
     bordercolor="#000000"
     borderopacity="0.25"
     inkscape:showpageshadow="2"
     inkscape:pageopacity="0"
     inkscape:pagecheckerboard="true"
     inkscape:deskcolor="#d1d1d1"
     inkscape:document-units="px"
     showgrid="false"
     showguides="true"
     inkscape:zoom="8.1458333"
     inkscape:cx="47.938619"
     inkscape:cy="48"
     inkscape:window-width="1920"
     inkscape:window-height="1002"
     inkscape:window-x="0"
     inkscape:window-y="0"
     inkscape:window-maximized="1"
     inkscape:current-layer="layer2">
    <sodipodi:guide
       position="12.697192,2.175292"
       orientation="1,0"
       id="guide1208"
       inkscape:locked="false" />
    <sodipodi:guide
       position="9.2645728,3.3141763"
       orientation="1,0"
       id="guide1936"
       inkscape:locked="false" />
    <sodipodi:guide
       position="16.134124,4.224858"
       orientation="1,0"
       id="guide1938"
       inkscape:locked="false" />
    <sodipodi:guide
       position="9.3649629,3.1277375"
       orientation="0,-1"
       id="guide1940"
       inkscape:locked="false" />
    <sodipodi:guide
       position="10.242514,6.7610058"
       orientation="1,0"
       id="guide1942"
       inkscape:locked="false" />
    <sodipodi:guide
       position="15.185123,8.408542"
       orientation="1,0"
       id="guide1944"
       inkscape:locked="false" />
    <sodipodi:guide
       position="10.38808,7.0521367"
       orientation="0,-1"
       id="guide1946"
       inkscape:locked="false" />
    <sodipodi:guide
       position="8.2826087,19.683376"
       orientation="0,-1"
       id="guide1948"
       inkscape:locked="false" />
    <sodipodi:guide
       position="8.3218323,25.565722"
       orientation="1,0"
       id="guide1950"
       inkscape:locked="false" />
    <sodipodi:guide
       position="17.08327,19.651601"
       orientation="1,0"
       id="guide1952"
       inkscape:locked="false" />
    <sodipodi:guide
       position="16.444559,21.540746"
       orientation="0,-1"
       id="guide1954"
       inkscape:locked="false" />
    <sodipodi:guide
       position="1.3966752,4.7421995"
       orientation="0,-1"
       id="guide2840"
       inkscape:locked="false" />
    <sodipodi:guide
       position="0.90946292,4.6122762"
       orientation="1,0"
       id="guide2842"
       inkscape:locked="false" />
    <sodipodi:guide
       position="24.523018,4.8721228"
       orientation="1,0"
       id="guide2844"
       inkscape:locked="false" />
    <sodipodi:guide
       position="5.9998162,22.853555"
       orientation="1,0"
       id="guide2846"
       inkscape:locked="false" />
    <sodipodi:guide
       position="6.4636829,3.7352941"
       orientation="0,-1"
       id="guide2848"
       inkscape:locked="false" />
    <sodipodi:guide
       position="19.228645,13.706905"
       orientation="1,0"
       id="guide2850"
       inkscape:locked="false" />
    <sodipodi:guide
       position="23.938363,20.982609"
       orientation="1,0"
       id="guide1065"
       inkscape:locked="false" />
    <sodipodi:guide
       position="25.270077,18.221739"
       orientation="0,-1"
       id="guide1067"
       inkscape:locked="false" />
    <sodipodi:guide
       position="1.5265985,21.177494"
       orientation="1,0"
       id="guide1069"
       inkscape:locked="false" />
    <sodipodi:guide
       position="13.447059,10.101534"
       orientation="0,-1"
       id="guide1131"
       inkscape:locked="false" />
  </sodipodi:namedview>
  <defs
     id="defs2" />
  <g
     inkscape:groupmode="layer"
     id="layer2"
     inkscape:label="Layer 2">
    <path
       id="path454"
       style="color:#000000;fill:#7f7f7f;stroke-linecap:square;stroke-miterlimit:56.3;-inkscape-stroke:none;paint-order:markers fill stroke"
       d="M 18.440218 4.9273478 L 15.01252 5.8094645 L 15.519983 6.4192464 C 16.272239 6.2665972 17.089464 6.2134276 18.037142 6.4626546 C 20.663035 7.1532299 21.850545 8.5774705 22.499919 10.185425 C 23.149292 11.793379 23.175846 13.599287 23.175846 14.863175 C 23.175847 17.188966 22.267782 19.2273 20.507792 20.730518 C 18.747803 22.233735 16.100742 23.203235 12.585795 23.203235 C 9.1903794 23.203235 6.5553919 22.223705 4.7774862 20.703129 C 2.9995805 19.182554 2.0525877 17.125457 2.0525879 14.808398 C 2.0525879 13.578177 2.1533367 11.780724 2.8478882 10.175606 C 3.5424396 8.57049 4.7598237 7.1477846 7.2419352 6.4647217 C 7.8619616 6.294094 8.4009916 6.2413875 8.8904134 6.258016 C 9.1683869 6.2674606 9.4297014 6.2999365 9.6800293 6.3463826 L 10.017993 5.8936971 L 6.8393758 4.9309652 C 6.8329564 4.932714 6.8266839 4.933847 6.8202555 4.935616 C 3.9007111 5.7390579 2.2312544 7.6024213 1.3906128 9.5451538 C 0.54997122 11.487886 0.46508794 13.50111 0.46508789 14.808398 C 0.46508773 17.566359 1.6332153 20.102986 3.7439575 21.908223 C 5.8546997 23.713462 8.8836475 24.791252 12.585795 24.791252 C 16.393999 24.791252 19.437939 23.732424 21.539254 21.937679 C 23.64057 20.142934 24.763863 17.612405 24.763863 14.863175 C 24.763863 13.589555 24.767512 11.559691 23.972697 9.5916626 C 23.177908 7.6236347 21.498666 5.7319243 18.441252 4.9278646 C 18.440884 4.9277679 18.440586 4.9274445 18.440218 4.9273478 z M 13.500468 6.7592773 L 13.414168 6.9954386 C 13.589044 6.9591262 13.760985 6.9132038 13.933 6.8626302 L 13.500468 6.7592773 z M 11.791528 6.8305908 L 11.537797 6.8926025 C 11.644832 6.9246638 11.752552 6.9553923 11.862325 6.9809692 L 11.791528 6.8305908 z " />
    <path
       id="path1123"
       style="color:#000000;fill:#7f7f7f;stroke-width:0.811797;stroke-miterlimit:56.3;-inkscape-stroke:none;paint-order:markers fill stroke"
       d="m 12.712919,10.561106 c -3.286521,0 -5.9649777,2.678458 -5.9649777,5.964978 -1e-7,3.286522 2.6784566,5.964559 5.9649777,5.964559 3.286521,0 5.964978,-2.678037 5.964978,-5.964559 H 17.38875 c 0,2.590043 -2.085789,4.675412 -4.675831,4.675412 -2.590043,0 -4.6758311,-2.085369 -4.675831,-4.675412 0,-2.590042 2.085788,-4.675831 4.675831,-4.675831 z m 1.196855,0.114106 -0.285265,1.360464 0.122076,0.02517 0.114107,0.02727 0.112847,0.03021 0.112429,0.03314 0.109491,0.03482 0.109491,0.0365 0.107814,0.04111 0.106135,0.04279 0.10278,0.04447 0.103198,0.0474 0.04782,0.02391 0.614998,-1.247615 -0.06334,-0.0302 -0.133404,-0.06209 -0.136339,-0.05999 -0.139277,-0.05538 -0.139697,-0.05244 -0.140954,-0.04908 -0.14431,-0.04615 -0.145989,-0.04111 -0.145988,-0.03985 -0.148926,-0.03482 z m 2.423075,1.079813 -0.846985,1.103724 0.09523,0.07258 0.08558,0.07006 0.08558,0.07132 0.08264,0.07299 0.08096,0.07593 0.07929,0.07761 0.07761,0.07929 0.07425,0.08096 0.07299,0.08264 0.07132,0.0839 0.06838,0.08558 1.084427,-0.870478 -0.07761,-0.09691 -0.09355,-0.11075 -0.09523,-0.107814 -0.09817,-0.104877 -0.09984,-0.102779 -0.103199,-0.101521 -0.104457,-0.09816 -0.107814,-0.09691 -0.111169,-0.09187 -0.112428,-0.09187 z m 1.712011,2.011958 -1.229996,0.648559 0.02056,0.04111 0.04908,0.09858 0.0474,0.101521 0.04447,0.101101 0.04279,0.101521 0.03985,0.104876 0.0365,0.104458 0.03482,0.104877 0.03146,0.107813 0.0302,0.107814 0.02685,0.107813 0.0096,0.0474 1.357107,-0.302883 -0.01426,-0.06335 -0.03482,-0.140954 -0.03817,-0.141374 -0.04111,-0.139277 -0.04573,-0.136339 -0.04782,-0.138019 -0.05244,-0.134661 -0.0537,-0.133404 -0.05873,-0.131725 -0.06041,-0.131306 -0.0646,-0.128789 z" />
    <path
       id="path1212"
       style="fill:none;stroke:#7f7f7f;stroke-width:1.19062;stroke-linecap:butt;stroke-linejoin:bevel;stroke-miterlimit:56.3;stroke-dasharray:none;stroke-dashoffset:2.74061;paint-order:markers fill stroke"
       d="m 5.6855469,4.0566406 c -0.1738726,0.6677892 -0.2431224,1.2683982 0.6250155,1.267093 0.9440052,0.285969 1.8880105,0.571938 2.8320157,0.857907 -0.2265864,0.4936473 -1.1399442,0.9678292 -0.5211122,1.4854384 0.2546207,0.7661372 1.0722491,0.096251 1.6331651,0.081143 0.568302,-0.06496 1.383108,-0.6463326 1.497444,0.2397448 0.27474,0.5623444 0.413423,1.3506246 1.208904,1.0482267 0.602079,-0.060244 0.516567,-1.0565982 0.825529,-1.5159016 0.386002,-0.251508 1.165507,0.2285823 1.703057,0.2588311 0.685847,0.3957458 1.015706,-0.072588 1.291685,-0.671701 C 16.498519,6.6615087 15.475925,5.9769226 16.534152,5.9635898 17.555971,5.7003359 18.57779,5.437082 19.599609,5.1738281 19.606649,4.4826542 19.530731,3.8805425 18.686889,4.1028594 15.306863,3.9681012 11.925042,3.7956454 8.5430245,3.9786765 7.590532,4.0046645 6.6380394,4.0306526 5.6855469,4.0566406 Z" />
    <path
       style="fill:none;stroke:#7f7f7f;stroke-width:1.5875;stroke-linecap:round;stroke-linejoin:bevel;stroke-miterlimit:56.3;stroke-dasharray:none;stroke-dashoffset:10.3582;paint-order:markers fill stroke"
       d="m 13.254077,1.24163 c 0,0 -1.092675,2.6121684 -0.708995,4.3797085"
       id="path1223"
       sodipodi:nodetypes="cc" />
  </g>
</svg>
